<?xml version="1.0" encoding="UTF-8" standalone="no"?>
<!-- Created with Inkscape (http://www.inkscape.org/) -->

<svg
   width="109.74614mm"
   height="57.058857mm"
   viewBox="0 0 109.74614 57.058857"
   version="1.1"
   id="svg5"
   xml:space="preserve"
   inkscape:version="1.2.1 (9c6d41e, 2022-07-14)"
   sodipodi:docname="logo_student_club.svg"
   xmlns:inkscape="http://www.inkscape.org/namespaces/inkscape"
   xmlns:sodipodi="http://sodipodi.sourceforge.net/DTD/sodipodi-0.dtd"
   xmlns:xlink="http://www.w3.org/1999/xlink"
   xmlns="http://www.w3.org/2000/svg"
   xmlns:svg="http://www.w3.org/2000/svg"><sodipodi:namedview
     id="namedview7"
     pagecolor="#000000"
     bordercolor="#000000"
     borderopacity="0.25"
     inkscape:showpageshadow="2"
     inkscape:pageopacity="0"
     inkscape:pagecheckerboard="0"
     inkscape:deskcolor="#d1d1d1"
     inkscape:document-units="mm"
     showgrid="false"
     inkscape:zoom="2.9174269"
     inkscape:cx="111.57092"
     inkscape:cy="131.10868"
     inkscape:window-width="1512"
     inkscape:window-height="849"
     inkscape:window-x="0"
     inkscape:window-y="38"
     inkscape:window-maximized="1"
     inkscape:current-layer="layer1"
     showguides="false" /><defs
     id="defs2"><inkscape:path-effect
       effect="bend_path"
       id="path-effect6034"
       is_visible="true"
       lpeversion="1"
       bendpath="m 107.71119,142.42686 c -7.833615,-8.55963 -9.656379,-27.00013 7.12851,-43.293004"
       prop_scale="1"
       scale_y_rel="false"
       vertical="false"
       hide_knot="false"
       bendpath-nodetypes="cc" /><inkscape:path-effect
       effect="bend_path"
       id="path-effect5949"
       is_visible="true"
       lpeversion="1"
       bendpath="M 64.152385,57.317749 C 66.43896,98.55033 100.52559,88.77855 96.699141,81.497671"
       prop_scale="2.5135222"
       scale_y_rel="false"
       vertical="false"
       hide_knot="false"
       bendpath-nodetypes="cc" /><inkscape:path-effect
       effect="bend_path"
       id="path-effect5868"
       is_visible="true"
       lpeversion="1"
       bendpath="m 51.83201,123.73454 c 14.134271,-25.876766 35.227547,-22.82251 34.772493,2.51913"
       prop_scale="1.4049563"
       scale_y_rel="false"
       vertical="false"
       hide_knot="false"
       bendpath-nodetypes="cc" /><inkscape:path-effect
       effect="bend_path"
       id="path-effect5783"
       is_visible="true"
       lpeversion="1"
       bendpath="m 22.393139,119.65665 c 11.357591,8.00798 32.518946,22.89214 37.952473,1.75224"
       prop_scale="1"
       scale_y_rel="false"
       vertical="false"
       hide_knot="false"
       bendpath-nodetypes="cc" /><inkscape:path-effect
       effect="bend_path"
       id="path-effect5690"
       is_visible="true"
       lpeversion="1"
       bendpath="m 18.002546,117.44892 c 7.690085,-1.34119 18.822394,-4.4227 20.156973,4.49603"
       prop_scale="1"
       scale_y_rel="false"
       vertical="false"
       hide_knot="false"
       bendpath-nodetypes="cc" /><inkscape:path-effect
       effect="bend_path"
       id="path-effect5572"
       is_visible="true"
       lpeversion="1"
       bendpath="m 18.116453,116.86517 c 9.718782,-3.71434 17.526246,-1.34289 20.444334,4.98188"
       prop_scale="0.90951101"
       scale_y_rel="false"
       vertical="false"
       hide_knot="false"
       bendpath-nodetypes="cc" /><inkscape:perspective
       sodipodi:type="inkscape:persp3d"
       inkscape:vp_x="0 : -91.441149 : 1"
       inkscape:vp_y="0 : 999.99999 : 0"
       inkscape:vp_z="210.00001 : -91.441149 : 1"
       inkscape:persp3d-origin="105.00001 : -140.94115 : 1"
       id="perspective4669" /><inkscape:path-effect
       effect="bend_path"
       id="path-effect4495"
       is_visible="true"
       lpeversion="1"
       bendpath="M 36.46978,95.085254 H 61.119438"
       prop_scale="1"
       scale_y_rel="false"
       vertical="false"
       hide_knot="false" /></defs><g
     inkscape:label="Layer 1"
     inkscape:groupmode="layer"
     id="layer1"
     transform="translate(-5.0096726,-99.232238)"><path
       id="path177"
       style="fill:#b6ce55;fill-opacity:0.545763;stroke:#b6ce55;stroke-width:0.695353"
       d="m 13.107015,128.54234 a 6.3793612,6.3793612 0 0 0 4.861309,-7.60001 6.3793612,6.3793612 0 0 0 -7.599987,-4.86129 6.3793612,6.3793612 0 0 0 -4.8613135,7.60002 6.3793612,6.3793612 0 0 0 7.5999825,4.86129 z"
       inkscape:export-filename="logo_student_club.png"
       inkscape:export-xdpi="929.24451"
       inkscape:export-ydpi="929.24451" /><text
       xml:space="preserve"
       style="font-size:3.96875px;font-family:sans-serif;-inkscape-font-specification:sans-serif;fill:none;fill-opacity:1;stroke:#b6ce55;stroke-width:0.654;stroke-dasharray:none;stroke-opacity:1"
       id="text2384"
       transform="translate(14.926196,74.142825)"><textPath
         xlink:href="#path177"
         id="textPath3424"><tspan
           id="tspan2382"
           style="stroke:#0065bd;stroke-width:0.654;stroke-opacity:1">T   U   M</tspan></textPath></text><g
       id="g5688"
       inkscape:path-effect="#path-effect5690"
       class="UnoptimicedTransforms"><path
         id="path4497-3"
         style="fill:#ff2a2a;fill-opacity:0.4;stroke-width:0.448758"
         d="m 38.141374,121.82905 c -0.586119,0.0958 -1.208636,-0.30299 -1.941723,-0.84419 -0.690056,-0.50943 -1.564431,-1.22518 -2.353244,-1.28648 -0.872277,-0.31781 -1.917715,-0.25827 -3.539077,-0.37568 -0.27577,-0.009 -0.553264,-0.0145 -0.834297,-0.0169 -2.599449,-0.0225 -5.493211,0.19452 -7.73858,-0.036 -2.304219,-0.23661 -3.687413,-0.87496 -3.847402,-1.80077 -0.155514,-0.89992 0.883595,-2.01572 2.915572,-3.06537 2.015773,-1.04127 5.115472,-2.0339 8.672563,-2.05478 0.37977,-0.002 0.76214,0.007 1.146179,0.0274 2.326542,0.0622 4.721938,0.92066 6.588997,2.50789 1.871549,1.81887 2.273523,3.75068 2.168294,4.99571 -0.106508,1.26016 -0.693562,1.86032 -1.237282,1.94922 z"
         inkscape:original-d="M 52.992879,81.100712 A 9.9928797,3.4893191 0 0 1 43,84.590031 9.9928797,3.4893191 0 0 1 33.007121,81.100712 9.9928797,3.4893191 0 0 1 43,77.611393 a 9.9928797,3.4893191 0 0 1 9.992879,3.489319 z" /><g
         aria-label="Applied"
         id="text4260"
         style="font-size:3.96875px;-inkscape-font-specification:sans-serif;fill:#ffffff;stroke-width:0.654"
         transform="translate(-10.414304,-19.950654)"><path
           d="m 34.413171,137.49305 c -0.155028,0.0263 -0.310235,0.0531 -0.465624,0.0805 -0.153722,-0.24584 -0.308681,-0.49136 -0.464665,-0.73659 -0.479483,0.0858 -0.959299,0.17577 -1.439538,0.26724 -0.05853,0.28514 -0.11671,0.57029 -0.174742,0.85545 -0.149622,0.0287 -0.299422,0.0574 -0.449403,0.0862 0.222009,-1.02582 0.443261,-2.05206 0.67436,-3.0776 0.199433,-0.0373 0.399401,-0.0743 0.599911,-0.11067 0.585466,0.87463 1.162198,1.7525 1.719701,2.63549 z m -1.125156,-0.95685 c -0.279047,-0.43104 -0.561042,-0.86121 -0.84479,-1.29072 -0.111329,0.50255 -0.220031,1.00534 -0.327322,1.50823 0.390587,-0.0741 0.781275,-0.14707 1.172112,-0.21751 z"
           id="path4458"
           inkscape:original-d="m 48.538582,102.23293 h -0.40889 l -0.282928,-0.80421 h -1.247986 l -0.282929,0.80421 h -0.389511 l 1.050324,-2.88548 h 0.511596 z m -0.810028,-1.13365 -0.505783,-1.416579 -0.507721,1.416579 z" /><path
           d="m 36.910295,136.02083 c 0.01871,0.17419 0.0066,0.33689 -0.03508,0.48796 -0.04187,0.14982 -0.109079,0.28068 -0.201301,0.39283 -0.08553,0.10619 -0.190383,0.19371 -0.314872,0.26299 -0.123216,0.0678 -0.257268,0.11173 -0.402969,0.13197 -0.12678,0.0176 -0.243642,0.0221 -0.350891,0.013 -0.105763,-0.009 -0.215911,-0.0312 -0.330699,-0.066 l 0.13586,0.89712 c -0.135307,0.021 -0.270868,0.0426 -0.406685,0.0647 l -0.467385,-2.92951 c 0.143222,-0.0226 0.286622,-0.0447 0.430202,-0.0662 l 0.03396,0.22428 c 0.101854,-0.0976 0.22009,-0.18357 0.354688,-0.25744 0.135943,-0.0753 0.285728,-0.12389 0.448679,-0.14526 0.310701,-0.0408 0.565362,0.0288 0.75934,0.2052 0.195774,0.17533 0.309837,0.43694 0.347148,0.78429 0,-1e-5 0,-2e-5 0,-3e-5 z m -0.434852,0.0595 c -0.03095,-0.25872 -0.105856,-0.44567 -0.226731,-0.56093 -0.120664,-0.11507 -0.290908,-0.15894 -0.508928,-0.12965 -0.123448,0.0166 -0.244502,0.0562 -0.362637,0.1187 -0.118138,0.0625 -0.228455,0.13884 -0.330794,0.22877 l 0.18376,1.21342 c 0.125004,0.028 0.230372,0.0443 0.316641,0.0486 0.08774,0.004 0.185126,-0.001 0.292362,-0.0165 0.230488,-0.0323 0.4011,-0.1234 0.5139,-0.27545 0.112613,-0.15179 0.154252,-0.36086 0.122417,-0.62702 z"
           id="path4460"
           inkscape:original-d="m 50.852394,101.12447 q 0,0.26355 -0.07558,0.48253 -0.07558,0.21704 -0.213165,0.3682 -0.127899,0.1434 -0.302307,0.22285 -0.17247,0.0775 -0.366257,0.0775 -0.168594,0 -0.306183,-0.0368 -0.13565,-0.0368 -0.277115,-0.11434 v 0.90692 h -0.364318 v -2.96299 h 0.364318 v 0.22673 q 0.14534,-0.12209 0.325562,-0.20348 0.182159,-0.0833 0.387573,-0.0833 0.391449,0 0.60849,0.2965 0.218979,0.29455 0.218979,0.81971 z m -0.375946,0.01 q 0,-0.39145 -0.133713,-0.58523 -0.133712,-0.19379 -0.410827,-0.19379 -0.156968,0 -0.315873,0.0678 -0.158905,0.0678 -0.304245,0.17828 v 1.22667 q 0.15503,0.0698 0.265488,0.0949 0.112396,0.0252 0.253861,0.0252 0.304245,0 0.474777,-0.20542 0.170532,-0.20541 0.170532,-0.60849 z" /><path
           d="m 39.784483,135.85101 c 7.27e-4,0.17507 -0.02792,0.33557 -0.08424,0.48137 -0.05634,0.14455 -0.135367,0.26764 -0.236551,0.36972 -0.09407,0.0968 -0.204803,0.17334 -0.332654,0.23015 -0.126482,0.0555 -0.260988,0.0865 -0.404784,0.0936 -0.12512,0.006 -0.239396,4.2e-4 -0.343325,-0.0176 -0.10246,-0.0181 -0.208264,-0.0489 -0.317867,-0.0924 l 0.06592,0.9009 c -0.131958,0.01 -0.264156,0.0208 -0.396595,0.0326 l -0.256572,-2.94121 c 0.145741,-0.0126 0.291676,-0.0242 0.437806,-0.0347 l 0.01648,0.22522 c 0.109802,-0.0892 0.235551,-0.16545 0.377126,-0.22801 0.143048,-0.0639 0.298178,-0.0998 0.464206,-0.10696 0.316688,-0.0137 0.566808,0.0792 0.74385,0.27322 0.17913,0.19333 0.265744,0.46491 0.267195,0.81416 2e-6,-1e-5 3e-6,-2e-5 5e-6,-3e-5 z m -0.437549,0.0158 c -0.0058,-0.26006 -0.06225,-0.45286 -0.172278,-0.57864 -0.109737,-0.12546 -0.276464,-0.18452 -0.497634,-0.17406 -0.125196,0.006 -0.249973,0.0352 -0.373448,0.0877 -0.123482,0.0526 -0.239987,0.11973 -0.349193,0.20123 l 0.08916,1.21852 c 0.120629,0.0376 0.22259,0.0624 0.306847,0.0738 0.08569,0.0114 0.181538,0.0141 0.287885,0.009 0.228532,-0.0118 0.403699,-0.0861 0.528673,-0.22634 0.124646,-0.13987 0.185981,-0.34351 0.179987,-0.61094 z"
           id="path4462"
           inkscape:original-d="m 53.325111,101.12447 q 0,0.26355 -0.07558,0.48253 -0.07558,0.21704 -0.213166,0.3682 -0.127899,0.1434 -0.302307,0.22285 -0.17247,0.0775 -0.366257,0.0775 -0.168594,0 -0.306182,-0.0368 -0.135651,-0.0368 -0.277115,-0.11434 v 0.90692 h -0.364319 v -2.96299 h 0.364319 v 0.22673 q 0.14534,-0.12209 0.325561,-0.20348 0.18216,-0.0833 0.387574,-0.0833 0.391448,0 0.60849,0.2965 0.218978,0.29455 0.218978,0.81971 z m -0.375946,0.01 q 0,-0.39145 -0.133712,-0.58523 -0.133713,-0.19379 -0.410828,-0.19379 -0.156967,0 -0.315872,0.0678 -0.158905,0.0678 -0.304245,0.17828 v 1.22667 q 0.155029,0.0698 0.265487,0.0949 0.112397,0.0252 0.253861,0.0252 0.304245,0 0.474777,-0.20542 0.170532,-0.20541 0.170532,-0.60849 z" /><path
           d="m 40.825733,136.98051 c -1.48e-4,-1e-5 -2.95e-4,-2e-5 -4.43e-4,-3e-5 -0.134074,-0.007 -0.268254,-0.0121 -0.402542,-0.0161 l 0.07627,-3.00947 c 0.153816,0.003 0.307965,0.007 0.462448,0.0133 1.74e-4,0 3.48e-4,0 5.22e-4,1e-5 z"
           id="path4464"
           inkscape:original-d="m 54.261101,102.23293 h -0.364319 v -3.015317 h 0.364319 z" /><path
           d="m 42.36168,134.5678 c -0.176974,-0.0234 -0.353514,-0.043 -0.529308,-0.059 l 0.03636,-0.37881 c 0.179966,0.0162 0.360916,0.0361 0.542538,0.0602 z m -0.356367,2.52177 c -0.129489,-0.0166 -0.259878,-0.0316 -0.390948,-0.045 l 0.212325,-2.16972 c 0.152397,0.0144 0.305186,0.0314 0.458151,0.0512 z"
           id="path4466"
           inkscape:original-d="m 55.373436,99.705956 h -0.410828 v -0.377884 h 0.410828 z m -0.02325,2.526974 h -0.364319 v -2.16459 h 0.364319 z" /><path
           d="m 44.948734,136.82183 c -0.547203,-0.26121 -1.130704,-0.45112 -1.732248,-0.58751 -0.02963,0.13008 -0.03294,0.24901 -0.01214,0.35608 0.02112,0.10591 0.06097,0.19841 0.1187,0.27808 0.05536,0.0778 0.125582,0.14402 0.210636,0.19998 0.08645,0.0564 0.184204,0.10144 0.294424,0.13718 0.146158,0.0474 0.299082,0.0716 0.464243,0.0755 0.167228,0.003 0.291653,-0.003 0.376755,-0.0258 0.0062,0.003 0.0124,0.006 0.01859,0.009 l -0.167296,0.35675 c -0.132285,-0.005 -0.262918,-0.0145 -0.393476,-0.0283 -0.130544,-0.0139 -0.261127,-0.0421 -0.395018,-0.0851 -0.341849,-0.10991 -0.594989,-0.26529 -0.765434,-0.50171 -0.168967,-0.23602 -0.232513,-0.52879 -0.166859,-0.88269 0.06488,-0.34973 0.228189,-0.60863 0.510316,-0.76043 0.281943,-0.15051 0.631823,-0.17178 1.025,-0.0432 0.36421,0.11913 0.610964,0.31235 0.729499,0.54791 0.12125,0.23857 0.103076,0.49647 -0.03122,0.77774 -0.02816,0.059 -0.05631,0.11795 -0.08447,0.17693 z m -0.26503,-0.42019 c 0.07072,-0.1763 0.07283,-0.33435 -0.0016,-0.47532 -0.07244,-0.13942 -0.227342,-0.25387 -0.461634,-0.32936 -0.235816,-0.076 -0.442347,-0.0724 -0.610171,0.003 -0.166785,0.0763 -0.275647,0.19871 -0.331608,0.36123 0.480517,0.10995 0.951731,0.25391 1.405053,0.44025 z"
           id="path4468"
           inkscape:original-d="m 57.882973,101.18842 h -1.594864 q 0,0.1996 0.06007,0.34882 0.06007,0.14728 0.164718,0.24223 0.100769,0.093 0.238358,0.13953 0.139526,0.0465 0.306183,0.0465 0.220916,0 0.443771,-0.0872 0.224793,-0.0891 0.319748,-0.1744 h 0.01938 v 0.39726 q -0.184098,0.0775 -0.375946,0.12984 -0.191849,0.0523 -0.403077,0.0523 -0.538726,0 -0.841033,-0.29068 -0.302308,-0.29262 -0.302308,-0.82941 0,-0.53097 0.288742,-0.84297 0.29068,-0.312 0.76352,-0.312 0.437957,0 0.674377,0.2558 0.238358,0.2558 0.238358,0.7267 z m -0.35463,-0.27905 q -0.0019,-0.2868 -0.14534,-0.44377 -0.141464,-0.15697 -0.432144,-0.15697 -0.292618,0 -0.467026,0.17247 -0.17247,0.17247 -0.195724,0.42827 z" /><path
           d="m 46.185805,139.06757 c -0.06997,-0.0894 -0.142819,-0.17556 -0.218569,-0.25811 l 0.165128,-0.15157 c -0.134338,-0.0142 -0.255497,-0.0381 -0.3659,-0.0732 -0.110459,-0.0351 -0.210088,-0.0883 -0.304118,-0.16116 -0.08235,-0.0638 -0.147129,-0.13344 -0.19608,-0.21357 0,0 0,0 0,0 -0.06,-0.10532 -0.09654,-0.22501 -0.109688,-0.36207 -0.02266,-0.24679 0.03858,-0.5284 0.210185,-0.83246 0.08961,-0.15876 0.195129,-0.28535 0.322128,-0.37675 0.128155,-0.0904 0.268341,-0.14879 0.420703,-0.17197 0.118222,-0.0173 0.2406,-0.0134 0.365803,0.0128 0.03324,0.008 0.06657,0.018 0.09995,0.0295 0.160905,0.0559 0.309581,0.14266 0.440828,0.2568 0.118951,0.10346 0.212592,0.20801 0.28149,0.30938 0.06987,0.10062 0.131499,0.21622 0.182518,0.34543 l 0.683093,-0.62704 c 0.125341,0.1365 0.245437,0.27638 0.360319,0.41932 0,0 -2.337792,1.85463 -2.337792,1.85463 z m 0.16955,-0.61438 0.904676,-0.83043 c -0.05283,-0.12175 -0.111195,-0.22445 -0.171499,-0.30696 -0.06032,-0.0825 -0.135508,-0.16484 -0.225621,-0.2448 -0.201249,-0.17857 -0.414051,-0.25133 -0.614055,-0.22066 -0.01261,0.002 -0.02509,0.004 -0.03746,0.007 0,0 0,0 0,0 -0.184947,0.0438 -0.338864,0.17223 -0.472973,0.37613 -0.140407,0.21348 -0.206975,0.40521 -0.209091,0.56734 -9.2e-5,0.0107 1.41e-4,0.0212 6.98e-4,0.0317 0,0 0,0 0,0 0.0077,0.14563 0.07981,0.26498 0.215161,0.37615 0.07749,0.0636 0.168046,0.11388 0.274812,0.15398 0.107634,0.0391 0.218836,0.0694 0.335356,0.0906 z"
           id="path4470"
           inkscape:original-d="m 60.190971,102.23293 h -0.364318 v -0.22673 q -0.156968,0.13565 -0.3275,0.21123 -0.170532,0.0756 -0.370132,0.0756 -0.387574,0 -0.616242,-0.29843 -0.22673,-0.29844 -0.22673,-0.82747 0,-0.27518 0.07751,-0.49028 0.07945,-0.21511 0.213165,-0.36626 0.131775,-0.14728 0.306183,-0.22479 0.176346,-0.0775 0.364319,-0.0775 0.170532,0 0.302307,0.0368 0.131775,0.0349 0.277115,0.11046 v -0.937927 h 0.364318 z m -0.364318,-0.53291 v -1.24217 q -0.147278,-0.0659 -0.26355,-0.0911 -0.116272,-0.0252 -0.253861,-0.0252 -0.306183,0 -0.476715,0.21316 -0.170532,0.21317 -0.170532,0.60462 0,0.38563 0.131775,0.58717 0.131775,0.1996 0.422455,0.1996 0.155029,0 0.313934,-0.0678 0.158905,-0.0698 0.296494,-0.17828 z" /></g></g><g
       id="g5718"
       inkscape:path-effect="#path-effect5783"
       class="UnoptimicedTransforms"
       transform="translate(3.3914062,1.2112165)"><path
         id="path4497"
         style="fill:#0000ff;fill-opacity:0.4;stroke-width:0.547317"
         d="m 60.304184,121.56833 c 0.914097,0.24012 1.733443,3.06293 -0.5897,7.62945 0,0 0,0 -10e-7,0 -0.861686,1.67489 -2.321287,3.48837 -4.580933,4.82838 -1.846743,1.04432 -3.960887,1.64501 -6.149772,1.72723 -2.214253,0.0888 -4.364134,-0.22045 -6.37806,-0.78954 -0.38749,-0.10874 -0.771466,-0.22468 -1.15184,-0.34737 -4.212143,-1.35867 -7.836491,-3.49934 -10.738597,-5.59894 0,0 -1e-6,0 -1e-6,0 -6.303429,-4.51752 -9.128371,-8.50351 -8.456726,-9.4558 0.856821,-1.21483 5.164846,0.81965 11.727377,3.98392 0,0 10e-7,0 10e-7,0 3.02475,1.44575 6.378884,3.10159 9.681529,4.1449 0.302762,0.0956 0.605542,0.18643 0.90862,0.27204 1.549618,0.4338 2.982798,0.74748 4.328358,0.79589 1.2772,0.043 2.433496,-0.0717 3.402871,-0.42541 1.193032,-0.37619 2.318617,-1.22177 3.219534,-2.06783 0,0 1e-6,0 1e-6,0 2.581026,-2.43662 3.863242,-4.93705 4.777339,-4.69692 z"
         inkscape:original-d="M 69.021926,60.128549 A 14.247199,3.6404513 0 0 1 54.774727,63.769 a 14.247199,3.6404513 0 0 1 -14.2472,-3.640451 14.247199,3.6404513 0 0 1 14.2472,-3.640452 14.247199,3.6404513 0 0 1 14.247199,3.640452 z" /><g
         aria-label="Mathematics"
         id="text4314"
         style="font-size:3.96875px;-inkscape-font-specification:sans-serif;fill:#ffffff;stroke-width:0.654"
         transform="translate(6.3602645,-35.004927)"><path
           d="m 21.593004,160.21173 c -0.178111,-0.11673 -0.355867,-0.23386 -0.533289,-0.35136 l 1.37292,-2.07257 c -0.675679,0.22872 -1.355002,0.4526 -2.037015,0.67259 -0.104445,-0.0705 -0.208799,-0.14113 -0.313068,-0.21186 -0.04655,-0.71305 -0.0885,-1.42507 -0.127141,-2.13644 l -1.410012,2.04834 c -0.163206,-0.11233 -0.3262,-0.22484 -0.488998,-0.33751 l 1.642502,-2.3731 c 0.234819,0.16255 0.469782,0.32459 0.704937,0.48606 0.04265,0.67896 0.08843,1.35849 0.138496,2.03891 0.638741,-0.21445 1.275055,-0.43228 1.908159,-0.65426 0.241064,0.16035 0.482475,0.31986 0.724284,0.47843 z"
           id="path4435"
           inkscape:original-d="m 38.939391,96.562874 h -0.383698 v -2.486283 l -0.802277,1.691758 h -0.228668 l -0.796463,-1.691758 v 2.486283 H 36.36978 v -2.885483 h 0.523224 l 0.769333,1.606491 0.74414,-1.606491 h 0.532914 z" /><path
           d="m 25.021755,162.37226 c -0.17317,-0.1043 -0.345916,-0.20914 -0.518254,-0.31449 l 0.120219,-0.19675 c -0.0576,-0.009 -0.135926,-0.0211 -0.236065,-0.0356 -0.09745,-0.0144 -0.189028,-0.0344 -0.274666,-0.06 -0.101877,-0.0281 -0.213892,-0.0686 -0.335885,-0.12181 -0.122668,-0.0521 -0.259057,-0.12518 -0.408805,-0.21942 -0.275782,-0.17355 -0.474131,-0.37643 -0.594802,-0.60696 -0.12071,-0.23061 -0.125982,-0.43015 -0.0176,-0.5984 0.08883,-0.1379 0.209082,-0.21787 0.360518,-0.24037 0.153968,-0.0224 0.33709,-1.7e-4 0.549861,0.0662 0.21465,0.0676 0.455868,0.17351 0.724935,0.31734 0.269262,0.14394 0.554505,0.30239 0.857845,0.47563 l 0.0293,-0.048 c 0.0431,-0.0705 0.05794,-0.1417 0.04465,-0.21343 -0.01148,-0.0706 -0.04703,-0.1424 -0.106569,-0.21542 -0.05662,-0.0697 -0.132602,-0.14007 -0.227951,-0.21129 -0.09536,-0.0712 -0.197772,-0.14102 -0.307298,-0.20945 -0.132876,-0.083 -0.287643,-0.16493 -0.464409,-0.24609 -0.176066,-0.0822 -0.363564,-0.1586 -0.562614,-0.22922 -0.0089,-0.006 -0.01787,-0.0114 -0.0268,-0.0172 l 0.199527,-0.31164 c 0.108722,0.0465 0.261048,0.11871 0.459378,0.21682 0.19797,0.0979 0.387256,0.2033 0.568017,0.31623 0.211216,0.13195 0.388213,0.25665 0.531066,0.3749 0.145297,0.11823 0.25994,0.23817 0.343926,0.36031 0.08284,0.11992 0.12993,0.23818 0.141042,0.35503 0.01111,0.11683 -0.01914,0.23509 -0.09108,0.35461 -0.252495,0.41947 -0.504991,0.83894 -0.757487,1.2584 z m -0.240437,-0.76916 0.314186,-0.51419 c -0.16051,-0.0904 -0.34907,-0.19503 -0.568566,-0.31601 -0.217347,-0.11965 -0.393274,-0.20788 -0.529438,-0.26445 -0.162221,-0.0669 -0.305229,-0.10238 -0.429399,-0.10618 -0.123426,-0.005 -0.214692,0.0388 -0.273637,0.13144 -0.06656,0.10459 -0.06444,0.217 0.0069,0.33719 0.072,0.119 0.216377,0.2471 0.433303,0.38297 0.1805,0.11306 0.358932,0.19508 0.534761,0.24609 0.176516,0.0499 0.347196,0.0843 0.511857,0.10315 0,0 0,-10e-6 -1e-6,-10e-6 z"
           id="path4437"
           inkscape:original-d="m 41.367537,96.562874 h -0.362381 v -0.230606 c -0.0323,0.02196 -0.07623,0.05297 -0.131775,0.09302 -0.05426,0.03876 -0.107228,0.06977 -0.158905,0.09302 -0.06072,0.02971 -0.130483,0.05426 -0.20929,0.07364 -0.07881,0.02067 -0.171177,0.03101 -0.277114,0.03101 -0.195079,0 -0.360443,-0.0646 -0.496094,-0.193787 -0.135651,-0.129191 -0.203476,-0.29391 -0.203476,-0.494156 0,-0.164073 0.03488,-0.296493 0.104645,-0.397262 0.07106,-0.102061 0.171824,-0.18216 0.302307,-0.240296 0.131775,-0.05813 0.290034,-0.09754 0.474777,-0.11821 0.184743,-0.02067 0.383052,-0.03618 0.594925,-0.04651 v -0.0562 c 0,-0.08268 -0.01486,-0.151153 -0.04457,-0.205413 -0.02842,-0.05426 -0.06976,-0.09689 -0.124023,-0.1279 -0.05168,-0.02971 -0.113692,-0.04974 -0.186036,-0.06007 -0.07235,-0.01033 -0.147923,-0.0155 -0.22673,-0.0155 -0.0956,0 -0.202184,0.01292 -0.319748,0.03876 -0.117564,0.02455 -0.239004,0.06072 -0.364319,0.108521 h -0.01938 v -0.370133 c 0.07105,-0.01938 0.173761,-0.0407 0.30812,-0.06395 0.134359,-0.02325 0.26678,-0.03488 0.397263,-0.03488 0.152445,0 0.284866,0.01292 0.397263,0.03876 0.113688,0.02455 0.211873,0.06718 0.294555,0.127899 0.08139,0.05943 0.143402,0.136295 0.186035,0.230606 0.04263,0.09431 0.06395,0.211228 0.06395,0.350754 z m -0.362381,-0.532913 v -0.602677 c -0.111105,0.0065 -0.242234,0.01616 -0.393387,0.02907 -0.149861,0.01292 -0.268717,0.03165 -0.356567,0.0562 -0.104645,0.02971 -0.189265,0.07622 -0.253861,0.139527 -0.06459,0.06201 -0.09689,0.147925 -0.09689,0.257736 0,0.124023 0.03746,0.217687 0.112396,0.280991 0.07493,0.06201 0.189265,0.09302 0.343002,0.09302 0.127899,0 0.244817,-0.02455 0.350754,-0.07364 0.105937,-0.05039 0.204122,-0.11046 0.294556,-0.180221 z" /><path
           d="m 27.677821,163.89236 c -0.109604,-0.0401 -0.227056,-0.0885 -0.352185,-0.14547 -0.123211,-0.0559 -0.231121,-0.11024 -0.323642,-0.16283 -0.322909,-0.18354 -0.537213,-0.37692 -0.643588,-0.57651 -0.106514,-0.19986 -0.09252,-0.41301 0.04011,-0.63954 l 0.582221,-0.99447 c -0.116199,-0.068 -0.232246,-0.13618 -0.348146,-0.20462 l 0.15593,-0.26374 c 0.115563,0.0682 0.231256,0.13614 0.347083,0.20384 l 0.314635,-0.53742 c 0.170346,0.0994 0.340913,0.19828 0.511715,0.2965 l -0.311065,0.53984 c 0.355115,0.20439 0.711546,0.40612 1.069413,0.60455 l -0.148791,0.26831 c -0.359462,-0.19933 -0.717333,-0.40192 -1.073732,-0.60715 l -0.493245,0.85601 c -0.05686,0.0987 -0.09768,0.17816 -0.122473,0.23857 -0.02414,0.0593 -0.02773,0.12592 -0.01063,0.19996 0.01535,0.0685 0.05254,0.13395 0.11163,0.19609 0.06156,0.062 0.166733,0.13554 0.315518,0.21966 0.08667,0.049 0.181384,0.0927 0.284074,0.13085 0.103208,0.037 0.178801,0.0619 0.225989,0.0749 0.0095,0.005 0.01893,0.0105 0.0284,0.0158 -0.05307,0.0957 -0.106148,0.1913 -0.159221,0.28695 z"
           id="path4439"
           inkscape:original-d="m 43.193007,96.543495 c -0.06847,0.01809 -0.143402,0.03294 -0.224793,0.04457 -0.0801,0.01163 -0.151799,0.01744 -0.215103,0.01744 -0.220917,0 -0.388865,-0.05943 -0.503845,-0.178284 -0.11498,-0.118855 -0.17247,-0.309412 -0.17247,-0.57167 V 94.70446 h -0.246109 v -0.306183 h 0.246109 v -0.622055 h 0.364319 v 0.622055 h 0.751892 v 0.306183 h -0.751892 v 0.986374 c 0,0.113688 0.0026,0.20283 0.0078,0.267426 0.0052,0.0633 0.02329,0.122728 0.05426,0.178283 0.02842,0.05167 0.06718,0.08978 0.116271,0.114334 0.05039,0.02325 0.12661,0.03488 0.228669,0.03488 0.05943,0 0.121438,-0.0084 0.186035,-0.02519 0.06459,-0.01809 0.111102,-0.03294 0.139526,-0.04457 h 0.01938 z" /><path
           d="m 31.053434,165.64765 c -0.186735,-0.0875 -0.37279,-0.17623 -0.558179,-0.26603 l 0.538831,-1.10939 c 0.04349,-0.0895 0.07553,-0.17747 0.0962,-0.26373 0.02125,-0.0874 0.0198,-0.16435 -0.0042,-0.2308 -0.02368,-0.0721 -0.07432,-0.14154 -0.151819,-0.20877 -0.07696,-0.0684 -0.186095,-0.13792 -0.327538,-0.20929 -0.145198,-0.0733 -0.307756,-0.1286 -0.488273,-0.1665 -0.180518,-0.0379 -0.360774,-0.0613 -0.541099,-0.0701 l -0.755561,1.43197 c -0.181556,-0.0957 -0.362487,-0.19221 -0.542807,-0.28957 l 1.436166,-2.65812 c 0.171842,0.0929 0.343936,0.18497 0.516296,0.27606 l -0.510049,0.96666 c 0.208569,0.003 0.412601,0.0266 0.612617,0.07 0.200029,0.0434 0.392414,0.11149 0.578055,0.20447 0.339341,0.16996 0.568257,0.35883 0.687708,0.5723 0.119379,0.21333 0.124309,0.43949 0.0116,0.67921 -0.1993,0.4239 -0.398599,0.8478 -0.597898,1.27169 z"
           id="path4441"
           inkscape:original-d="m 45.44287,96.562874 h -0.364319 v -1.232483 c 0,-0.09948 -0.0058,-0.192495 -0.01744,-0.279053 -0.01163,-0.08785 -0.03294,-0.156321 -0.06395,-0.205414 -0.0323,-0.05426 -0.07881,-0.09431 -0.139526,-0.120147 -0.06072,-0.02713 -0.139527,-0.0407 -0.23642,-0.0407 -0.09948,0 -0.203475,0.02455 -0.311996,0.07364 -0.108521,0.04909 -0.21252,0.111751 -0.311997,0.187973 v 1.616181 h -0.364318 v -3.01532 h 0.364318 v 1.091019 c 0.113689,-0.09431 0.231253,-0.167949 0.352692,-0.220917 0.121439,-0.05297 0.246109,-0.07945 0.374008,-0.07945 0.233836,0 0.41212,0.07041 0.534851,0.211228 0.122732,0.140818 0.184098,0.343648 0.184098,0.60849 z" /><path
           d="m 35.360136,166.28389 c -0.835574,-0.28869 -1.658701,-0.60962 -2.470528,-0.95681 -0.05231,0.12222 -0.06742,0.24209 -0.04453,0.35979 0.02338,0.11648 0.07702,0.2267 0.161264,0.33026 0.08069,0.10067 0.187183,0.19483 0.319475,0.28174 0.134303,0.0877 0.289442,0.16617 0.465049,0.2345 0.232801,0.0906 0.478223,0.1523 0.734592,0.18437 0.258555,0.0316 0.448597,0.0365 0.567809,0.0182 0.01029,0.004 0.02059,0.007 0.03089,0.0108 l -0.130239,0.37455 c -0.214871,-0.0202 -0.431246,-0.0517 -0.648646,-0.0946 -0.217393,-0.0429 -0.438893,-0.10793 -0.663391,-0.19521 -0.572359,-0.22251 -0.977667,-0.49898 -1.213959,-0.81096 -0.236584,-0.31422 -0.276911,-0.6358 -0.131481,-0.96225 0.144067,-0.3234 0.403595,-0.51425 0.772872,-0.58076 0.371611,-0.0658 0.788405,-0.002 1.26019,0.18407 0.436899,0.17232 0.745299,0.37572 0.928128,0.62226 0.184266,0.24654 0.229234,0.51736 0.126912,0.81363 -0.02147,0.0622 -0.04294,0.12433 -0.06441,0.1865 z m -0.460119,-0.45897 c 0.06338,-0.18005 0.0391,-0.34589 -0.07023,-0.49797 -0.107426,-0.15149 -0.307091,-0.28244 -0.599454,-0.398 -0.294341,-0.11635 -0.5491,-0.15966 -0.768605,-0.12695 -0.217291,0.0335 -0.371835,0.12214 -0.462428,0.26879 0.626946,0.26827 1.26034,0.52058 1.900721,0.75413 z"
           id="path4443"
           inkscape:original-d="m 47.956282,95.518364 h -1.594864 c 0,0.133067 0.02002,0.249339 0.06007,0.348816 0.04005,0.09819 0.09495,0.17893 0.164719,0.242233 0.06718,0.06201 0.146632,0.108522 0.238357,0.139527 0.09302,0.03101 0.195079,0.04651 0.306183,0.04651 0.147278,0 0.295202,-0.02907 0.443771,-0.0872 0.149862,-0.05943 0.256445,-0.117563 0.319748,-0.174408 h 0.01938 v 0.397263 c -0.122731,0.05167 -0.248047,0.09495 -0.375946,0.129837 -0.127899,0.03488 -0.262258,0.05232 -0.403076,0.05232 -0.359151,0 -0.639496,-0.09689 -0.841034,-0.29068 -0.201538,-0.195078 -0.302307,-0.471547 -0.302307,-0.829406 0,-0.353984 0.09625,-0.634975 0.288742,-0.842972 0.193787,-0.207998 0.448293,-0.311997 0.763519,-0.311997 0.291972,0 0.516764,0.08527 0.674377,0.255799 0.158905,0.170532 0.238358,0.412765 0.238358,0.7267 z m -0.354629,-0.279053 c -0.0013,-0.191203 -0.04971,-0.339126 -0.14534,-0.443771 -0.09431,-0.104645 -0.238358,-0.156967 -0.432145,-0.156967 -0.195078,0 -0.350753,0.05749 -0.467025,0.17247 -0.11498,0.11498 -0.180222,0.257736 -0.195725,0.428268 z" /><path
           d="m 41.343566,168.654 c -0.217134,-0.014 -0.433466,-0.032 -0.648929,-0.0536 l 0.124287,-1.22502 c 0.0094,-0.0925 0.01099,-0.18246 0.0051,-0.26999 -0.0039,-0.0873 -0.02493,-0.15895 -0.06304,-0.21497 -0.04187,-0.0604 -0.105475,-0.10961 -0.190758,-0.14849 -0.08548,-0.039 -0.210791,-0.0689 -0.377368,-0.0927 -0.162336,-0.0232 -0.32816,-0.023 -0.499465,3.1e-4 -0.171074,0.0221 -0.345593,0.0559 -0.524428,0.10135 5.64e-4,0.0304 -9.59e-4,0.0657 -0.0044,0.10585 -0.0032,0.0389 -0.0085,0.0774 -0.01587,0.11547 l -0.264018,1.36149 c -0.209989,-0.0405 -0.418918,-0.0839 -0.626717,-0.13013 l 0.268232,-1.20454 c 0.0208,-0.0934 0.03319,-0.18345 0.03729,-0.27001 0.0064,-0.0874 -0.0062,-0.16113 -0.03779,-0.22137 -0.03484,-0.065 -0.09297,-0.1208 -0.174287,-0.16799 -0.08115,-0.0485 -0.203515,-0.0926 -0.367831,-0.13429 -0.156123,-0.0396 -0.318976,-0.0572 -0.489895,-0.0532 -0.05837,0.002 -0.117227,0.005 -0.176593,0.009 -0.112467,0.008 -0.226728,0.0212 -0.342943,0.0392 l -0.454211,1.55019 c -0.200744,-0.0592 -0.400679,-0.12033 -0.59982,-0.18319 l 0.648076,-2.06254 c 0.186152,0.0584 0.372842,0.11488 0.560082,0.16952 l -0.06753,0.23048 c 0.116723,-0.0223 0.230823,-0.0389 0.342489,-0.0497 0.08262,-0.008 0.16386,-0.013 0.243817,-0.0147 0.189949,-0.004 0.383016,0.0194 0.581139,0.0683 0.228123,0.0563 0.414222,0.13069 0.560211,0.22635 0.147882,0.096 0.251129,0.20498 0.309178,0.32885 0.257664,-0.0747 0.483982,-0.12404 0.68321,-0.14554 0.199408,-0.0228 0.405515,-0.0191 0.621235,0.01 0.370666,0.0496 0.635358,0.14607 0.801681,0.30514 0.168092,0.1576 0.247513,0.36305 0.230811,0.62056 -0.0303,0.46674 -0.0606,0.93348 -0.0909,1.40022 z"
           id="path4445"
           inkscape:original-d="m 51.667296,96.562874 h -0.364319 v -1.232483 c 0,-0.09302 -0.0045,-0.182805 -0.01356,-0.269363 -0.0078,-0.08656 -0.02519,-0.155676 -0.05232,-0.207352 -0.02971,-0.05555 -0.07235,-0.09754 -0.1279,-0.125961 -0.05555,-0.02842 -0.135652,-0.04263 -0.240295,-0.04263 -0.102061,0 -0.204122,0.02584 -0.306183,0.07752 -0.102061,0.05039 -0.204122,0.114982 -0.306183,0.193787 0.0039,0.02971 0.0071,0.0646 0.0097,0.104645 0.0026,0.03876 0.0039,0.07752 0.0039,0.116271 v 1.385575 H 49.905817 V 95.3304 c 0,-0.0956 -0.0045,-0.186035 -0.01356,-0.271301 -0.0078,-0.08656 -0.02519,-0.155675 -0.05232,-0.207352 -0.02971,-0.05555 -0.07235,-0.09689 -0.127899,-0.124023 -0.05555,-0.02842 -0.135652,-0.04263 -0.240296,-0.04263 -0.09948,0 -0.1996,0.02455 -0.300369,0.07364 -0.09948,0.04909 -0.198954,0.111751 -0.298431,0.187973 v 1.616181 h -0.364319 v -2.164597 h 0.364319 v 0.240296 c 0.113688,-0.09431 0.22673,-0.167949 0.339126,-0.220917 0.113689,-0.05297 0.234482,-0.07945 0.362381,-0.07945 0.147278,0 0.271948,0.03101 0.374009,0.09302 0.103353,0.06201 0.180221,0.147925 0.230606,0.257736 0.147277,-0.124023 0.281636,-0.213165 0.403076,-0.267425 0.121439,-0.05555 0.251276,-0.08333 0.389511,-0.08333 0.237711,0 0.412765,0.07235 0.525162,0.217041 0.113688,0.143403 0.170532,0.344295 0.170532,0.602677 z" /><path
           d="m 45.678124,168.30725 c -0.218345,0.0546 -0.437697,0.10308 -0.657719,0.14563 l -0.04328,-0.22661 c -0.0918,0.056 -0.128455,0.079 -0.220252,0.13497 -0.09143,0.0552 -0.182835,0.10139 -0.273594,0.13854 -0.106221,0.046 -0.230753,0.0881 -0.373042,0.12471 -0.142058,0.0379 -0.311427,0.0662 -0.506275,0.082 -0.359187,0.0291 -0.667675,-0.0253 -0.915069,-0.15095 -0.03254,-0.0165 -0.06285,-0.0338 -0.09095,-0.0518 0,0 0,0 0,0 -0.184708,-0.11888 -0.272808,-0.26758 -0.271746,-0.44112 0.001,-0.16398 0.06198,-0.29553 0.179491,-0.39685 0.02522,-0.0216 0.05257,-0.0423 0.08204,-0.0622 0,0 0,0 0,0 0.110736,-0.0745 0.250761,-0.13672 0.420654,-0.19003 0.218438,-0.0679 0.475388,-0.12338 0.778498,-0.17639 0.30038,-0.0525 0.625756,-0.11427 0.965092,-0.18956 l -0.01055,-0.0552 c -0.01551,-0.0812 -0.05225,-0.14396 -0.109072,-0.18865 -0.05486,-0.0451 -0.127376,-0.0754 -0.217714,-0.0919 -0.08613,-0.0159 -0.186274,-0.0205 -0.301426,-0.015 -0.11515,0.006 -0.234559,0.0152 -0.358902,0.0285 -0.151035,0.0163 -0.317715,0.0443 -0.503208,0.0824 -0.185533,0.0368 -0.377427,0.0814 -0.578123,0.13319 -0.01038,2e-4 -0.02076,3.9e-4 -0.03115,5.7e-4 l -0.006,-0.37016 c 0.117078,-0.0227 0.263586,-0.0457 0.477017,-0.0818 0.207055,-0.035 0.40954,-0.0633 0.609877,-0.0849 0.234356,-0.0252 0.436699,-0.0411 0.612471,-0.0434 0.177047,-0.004 0.333541,0.01 0.471946,0.043 0.136018,0.0325 0.247817,0.0856 0.335445,0.16182 0.08745,0.076 0.149365,0.18115 0.182843,0.31641 0.117552,0.47494 0.235105,0.94988 0.352658,1.42483 z m -0.757744,-0.37804 -0.11312,-0.59222 c -0.181877,0.0414 -0.401587,0.0889 -0.65229,0.13546 -0.252772,0.0471 -0.445719,0.0838 -0.595312,0.12169 -0.174828,0.0447 -0.315452,0.0997 -0.423022,0.16876 -0.107316,0.0676 -0.160193,0.15529 -0.155869,0.26521 0.0049,0.12387 0.0742,0.21567 0.211397,0.27205 0.136295,0.0547 0.345194,0.0738 0.620824,0.0464 0.229588,-0.0228 0.436753,-0.0742 0.618121,-0.15093 0.181194,-0.078 0.344508,-0.16751 0.489279,-0.26645 -3e-6,-10e-6 -6e-6,-10e-6 -8e-6,-10e-6 z"
           id="path4447"
           inkscape:original-d="M 54.050871,96.562874 H 53.68849 v -0.230606 c -0.0323,0.02196 -0.07623,0.05297 -0.131775,0.09302 -0.05426,0.03876 -0.107228,0.06977 -0.158905,0.09302 -0.06072,0.02971 -0.130483,0.05426 -0.209289,0.07364 -0.07881,0.02067 -0.171178,0.03101 -0.277115,0.03101 -0.195079,0 -0.360443,-0.0646 -0.496094,-0.193787 -0.135651,-0.129191 -0.203476,-0.29391 -0.203476,-0.494156 0,-0.164073 0.03488,-0.296493 0.104645,-0.397262 0.07105,-0.102061 0.171824,-0.18216 0.302307,-0.240296 0.131775,-0.05813 0.290034,-0.09754 0.474777,-0.11821 0.184743,-0.02067 0.383052,-0.03618 0.594925,-0.04651 v -0.0562 c 0,-0.08268 -0.01486,-0.151153 -0.04457,-0.205413 -0.02842,-0.05426 -0.06976,-0.09689 -0.124023,-0.1279 -0.05167,-0.02971 -0.113685,-0.04974 -0.186035,-0.06007 -0.07235,-0.01033 -0.147924,-0.0155 -0.226731,-0.0155 -0.0956,0 -0.202184,0.01292 -0.319747,0.03876 -0.117564,0.02455 -0.239004,0.06072 -0.364319,0.108521 h -0.01938 v -0.370133 c 0.07105,-0.01938 0.173762,-0.0407 0.308121,-0.06395 0.134359,-0.02325 0.266779,-0.03488 0.397262,-0.03488 0.152446,0 0.284867,0.01292 0.397263,0.03876 0.113688,0.02455 0.211873,0.06718 0.294556,0.127899 0.08139,0.05943 0.143402,0.136295 0.186035,0.230606 0.04263,0.09431 0.06395,0.211228 0.06395,0.350754 z M 53.68849,96.029961 v -0.602677 c -0.111104,0.0065 -0.242233,0.01616 -0.393387,0.02907 -0.149861,0.01292 -0.268717,0.03165 -0.356567,0.0562 -0.104645,0.02971 -0.189265,0.07622 -0.25386,0.139527 -0.06459,0.06201 -0.09689,0.147925 -0.09689,0.257736 0,0.124023 0.03747,0.217687 0.112397,0.280991 0.07493,0.06201 0.189265,0.09302 0.343002,0.09302 0.127899,0 0.244817,-0.02455 0.350754,-0.07364 0.105937,-0.05039 0.204122,-0.11046 0.294555,-0.180221 z" /><path
           d="m 48.835049,166.97311 c -0.100417,0.0833 -0.215075,0.16897 -0.344045,0.25542 -0.12684,0.0853 -0.245113,0.15543 -0.352554,0.21123 -0.04222,0.0219 -0.08382,0.0423 -0.12474,0.0613 0,0 0,0 0,0 -0.323518,0.14516 -0.600376,0.19742 -0.815416,0.17121 -0.244413,-0.0298 -0.407104,-0.17366 -0.498193,-0.41871 l -0.400258,-1.07674 c -0.120868,0.0449 -0.242757,0.0874 -0.365562,0.12739 l -0.0948,-0.29053 c 0.118956,-0.0387 0.236956,-0.0798 0.353893,-0.12327 l -0.216301,-0.58188 c 0.16128,-0.06 0.320047,-0.1249 0.475956,-0.19492 l 0.252323,0.56768 c 0.110487,-0.0494 0.21982,-0.10109 0.3279,-0.15522 0.231711,-0.11399 0.457939,-0.23934 0.678398,-0.37506 l 0.160341,0.26007 c -0.228154,0.14055 -0.462448,0.27063 -0.702593,0.38924 -0.112103,0.0559 -0.225418,0.10937 -0.339849,0.16038 l 0.4001,0.90015 c 0.04616,0.10385 0.08638,0.18316 0.121233,0.2384 0.03424,0.0539 0.08822,0.095 0.162685,0.12213 0.06858,0.0255 0.149415,0.0303 0.241856,0.0133 0.03231,-0.007 0.06917,-0.017 0.11043,-0.0314 0.07845,-0.0282 0.173358,-0.0713 0.282458,-0.13011 0.09693,-0.0523 0.193167,-0.11562 0.287714,-0.18995 0.09318,-0.0749 0.159678,-0.13315 0.197367,-0.16964 0.01009,-0.006 0.02016,-0.0124 0.03023,-0.0186 0,0 0.171425,0.27823 0.171424,0.27823 z"
           id="path4449"
           inkscape:original-d="m 55.876341,96.543495 c -0.06847,0.01809 -0.143402,0.03294 -0.224792,0.04457 -0.0801,0.01163 -0.1518,0.01744 -0.215103,0.01744 -0.220917,0 -0.388866,-0.05943 -0.503846,-0.178284 -0.11498,-0.118855 -0.17247,-0.309412 -0.17247,-0.57167 V 94.70446 h -0.246109 v -0.306183 h 0.246109 v -0.622055 h 0.364319 v 0.622055 h 0.751892 v 0.306183 h -0.751892 v 0.986374 c 0,0.113688 0.0026,0.20283 0.0078,0.267426 0.0052,0.0633 0.02329,0.122728 0.05426,0.178283 0.02842,0.05167 0.06718,0.08978 0.116272,0.114334 0.05039,0.02325 0.126609,0.03488 0.228668,0.03488 0.05943,0 0.121438,-0.0084 0.186035,-0.02519 0.06459,-0.01809 0.111102,-0.03294 0.139527,-0.04457 h 0.01938 z" /><path
           d="m 48.507201,164.13406 c -0.154966,0.12868 -0.313658,0.25185 -0.47593,0.36898 L 47.810924,164.197 c 0.155258,-0.11218 0.30723,-0.23031 0.455768,-0.35388 z m 1.574664,1.97315 c -0.176108,0.14383 -0.356681,0.28287 -0.541618,0.41675 l -1.269001,-1.7482 c 0.149477,-0.10869 0.295912,-0.22217 0.439202,-0.34007 z"
           id="path4451"
           inkscape:original-d="m 56.707686,94.035896 h -0.410828 v -0.377884 h 0.410828 z m -0.02325,2.526978 h -0.364318 v -2.164597 h 0.364318 z" /><path
           d="m 52.761119,162.80744 c -0.06567,0.21525 -0.141891,0.41509 -0.226894,0.59845 -0.02529,0.0548 -0.05282,0.10976 -0.08261,0.16474 -0.06985,0.12817 -0.152171,0.25628 -0.247095,0.38324 -0.173311,0.23179 -0.358435,0.42534 -0.549187,0.57991 -0.191759,0.15374 -0.382525,0.2598 -0.566513,0.31986 -0.185829,0.0619 -0.362567,0.0733 -0.528029,0.0376 -0.165769,-0.0357 -0.313448,-0.12363 -0.446405,-0.2595 -0.247716,-0.25315 -0.324678,-0.56243 -0.262793,-0.92368 0.0635,-0.36404 0.245502,-0.72237 0.541618,-1.11522 0.07732,-0.10258 0.15811,-0.20021 0.24305,-0.29349 0.04174,-0.0459 0.08444,-0.0906 0.128186,-0.13438 0.134642,-0.1352 0.263574,-0.25597 0.389586,-0.36225 l 0.342736,0.21426 c -0.0056,0.009 -0.01112,0.0178 -0.01669,0.0266 -0.169016,0.10651 -0.325654,0.22434 -0.471639,0.35458 -0.03422,0.0304 -0.06737,0.0611 -0.09947,0.0922 0,0 0,0 0,0 -0.103395,0.10001 -0.195746,0.20355 -0.277776,0.31205 -0.197474,0.26119 -0.308845,0.50268 -0.330304,0.74058 -0.02107,0.23548 0.06145,0.44547 0.26006,0.62703 0.19276,0.1762 0.409233,0.2391 0.652854,0.17474 0.242647,-0.0666 0.490713,-0.25196 0.721118,-0.5584 0.08002,-0.10643 0.151907,-0.22169 0.215042,-0.34513 0.01046,-0.0204 0.0205,-0.0407 0.03014,-0.0607 0.04787,-0.10012 0.08573,-0.19494 0.113979,-0.2839 0.02947,-0.0931 0.0537,-0.1821 0.07295,-0.26686 0.01813,-0.0853 0.03017,-0.15427 0.03671,-0.20584 0.006,-0.01 0.01195,-0.0191 0.01791,-0.0287 0,0 0.339457,0.21222 0.339457,0.21222 z"
           id="path4453"
           inkscape:original-d="m 59.005995,96.427223 c -0.121439,0.05813 -0.237065,0.10335 -0.346878,0.135651 -0.108521,0.0323 -0.224147,0.04845 -0.346878,0.04845 -0.156321,0 -0.299723,-0.02261 -0.430206,-0.06783 -0.130483,-0.04651 -0.242234,-0.11627 -0.335251,-0.209289 -0.09431,-0.09302 -0.167302,-0.210582 -0.218979,-0.352692 -0.05167,-0.14211 -0.07751,-0.308121 -0.07751,-0.498032 0,-0.353983 0.09689,-0.631744 0.29068,-0.833282 0.195079,-0.201538 0.452169,-0.302307 0.771271,-0.302307 0.124023,0 0.245463,0.01744 0.364319,0.05232 0.120147,0.03488 0.22996,0.07751 0.329437,0.127899 v 0.405014 h -0.01938 c -0.111105,-0.08656 -0.226085,-0.153091 -0.344941,-0.1996 -0.117563,-0.04651 -0.232543,-0.06976 -0.34494,-0.06976 -0.206705,0 -0.370132,0.06976 -0.49028,0.20929 -0.118856,0.138234 -0.178284,0.34171 -0.178284,0.610427 0,0.260966 0.05814,0.461858 0.174408,0.602677 0.117564,0.139526 0.282283,0.209289 0.494156,0.209289 0.07364,0 0.14857,-0.0097 0.224793,-0.02907 0.07622,-0.01938 0.144694,-0.04457 0.205413,-0.07558 0.05297,-0.02713 0.102705,-0.05556 0.149216,-0.08527 0.04651,-0.03101 0.08333,-0.05749 0.110459,-0.07945 H 59.006 Z" /><path
           d="m 53.876647,159.44284 c 0.184232,0.0705 0.287305,0.26069 0.295835,0.57521 0.0093,0.3109 -0.08724,0.70317 -0.305209,1.15788 -0.123561,0.25778 -0.260073,0.48456 -0.405976,0.67909 -0.145804,0.19169 -0.280596,0.34575 -0.399957,0.46265 l -0.353313,-0.20381 c 0.0056,-0.01 0.01121,-0.0195 0.0168,-0.0292 0.174358,-0.13034 0.343153,-0.29315 0.503408,-0.4881 0.159088,-0.1955 0.287414,-0.39742 0.384702,-0.60212 0.120519,-0.25358 0.18608,-0.46579 0.201378,-0.63031 0.01535,-0.16518 -0.03014,-0.26866 -0.132497,-0.31146 -0.07872,-0.0329 -0.154527,-0.0189 -0.227735,0.0407 -0.07386,0.0602 -0.170281,0.19172 -0.297091,0.39458 -0.04697,0.0749 -0.107505,0.17348 -0.182921,0.29494 -0.07445,0.11943 -0.146253,0.2266 -0.214571,0.32154 -0.189624,0.26315 -0.364821,0.42729 -0.5138,0.49647 -0.149787,0.067 -0.286091,0.0628 -0.408879,-0.008 -0.07708,-0.0444 -0.134931,-0.11164 -0.174662,-0.20083 -0.03872,-0.091 -0.05606,-0.20331 -0.05374,-0.337 0.0015,-0.1296 0.02722,-0.27912 0.07524,-0.4506 0.0478,-0.17388 0.117721,-0.35805 0.209003,-0.55534 0.08531,-0.18437 0.182936,-0.36569 0.293665,-0.54547 0.110553,-0.18253 0.210424,-0.3309 0.303821,-0.44565 l 0.363233,0.14186 c -0.0038,0.01 -0.0077,0.0196 -0.0115,0.0294 -0.119312,0.1163 -0.240578,0.26427 -0.36732,0.44368 -0.1278,0.17873 -0.234507,0.35968 -0.321046,0.5452 -0.09005,0.19304 -0.14613,0.365 -0.166677,0.51969 -0.02164,0.15378 0.01004,0.2544 0.09922,0.30121 0.07871,0.0413 0.15926,0.0325 0.241293,-0.0282 0.0807,-0.0586 0.179905,-0.17175 0.292803,-0.34049 0.06227,-0.0935 0.129476,-0.19951 0.200655,-0.31799 0.07355,-0.12291 0.130521,-0.21866 0.180733,-0.3008 0.148136,-0.24346 0.290752,-0.41998 0.435801,-0.52909 0.145707,-0.10821 0.2918,-0.13624 0.439311,-0.0798 z"
           id="path4455"
           inkscape:original-d="m 61.019438,95.938881 c 0,0.197662 -0.08204,0.359797 -0.246109,0.486404 -0.162781,0.126607 -0.385635,0.189911 -0.668564,0.189911 -0.160197,0 -0.307474,-0.01873 -0.441833,-0.0562 -0.133067,-0.03876 -0.244817,-0.08075 -0.335251,-0.125961 v -0.40889 h 0.01938 c 0.11498,0.08656 0.242879,0.155675 0.383697,0.207352 0.140819,0.05039 0.275823,0.07558 0.405014,0.07558 0.160197,0 0.285513,-0.02584 0.375946,-0.07751 0.09043,-0.05168 0.135651,-0.13307 0.135651,-0.244171 0,-0.08527 -0.02455,-0.149862 -0.07364,-0.193787 -0.04909,-0.04393 -0.143403,-0.08139 -0.282929,-0.112396 -0.05167,-0.01163 -0.119498,-0.02519 -0.203475,-0.04069 -0.08268,-0.01551 -0.15826,-0.0323 -0.226731,-0.05039 -0.189911,-0.05039 -0.324915,-0.124026 -0.405014,-0.220917 -0.07881,-0.09819 -0.11821,-0.218332 -0.11821,-0.360443 0,-0.08914 0.01809,-0.173115 0.05426,-0.251922 0.03747,-0.07881 0.09367,-0.149216 0.168594,-0.211228 0.07235,-0.06072 0.164072,-0.108521 0.275177,-0.143402 0.112396,-0.03617 0.237711,-0.05426 0.375946,-0.05426 0.129191,0 0.259674,0.01615 0.391449,0.04845 0.133067,0.03101 0.243525,0.06912 0.331375,0.114334 v 0.389511 h -0.01938 c -0.09302,-0.06847 -0.206059,-0.125961 -0.339126,-0.17247 -0.133067,-0.0478 -0.26355,-0.0717 -0.391449,-0.0717 -0.133067,0 -0.245463,0.02584 -0.337189,0.07751 -0.09172,0.05039 -0.137588,0.125964 -0.137588,0.226731 0,0.08914 0.02778,0.156321 0.08333,0.201538 0.05426,0.04521 0.14211,0.08203 0.26355,0.110458 0.06718,0.0155 0.14211,0.031 0.224792,0.04651 0.08397,0.0155 0.153737,0.02971 0.20929,0.04263 0.16924,0.03876 0.299723,0.105293 0.391449,0.1996 0.09172,0.0956 0.137588,0.222209 0.137588,0.379822 z" /></g></g><g
       id="g5947"
       inkscape:path-effect="#path-effect5949"
       class="UnoptimicedTransforms"
       transform="translate(13.002411,62.502816)"><ellipse
         style="fill:#0000ff;fill-opacity:0.4;stroke:none;stroke-width:0.283849;stroke-dasharray:none;stroke-opacity:1"
         id="path4497-5"
         cx="70.845039"
         cy="71.688835"
         rx="5.3239799"
         ry="2.6202641"
         d="m 96.887508,81.982637 c 0.258659,-0.06868 2.921738,0.293564 1.832388,3.695178 -0.462352,1.594624 -1.654701,3.421539 -3.381368,4.630242 -3.151395,2.421253 -8.185285,4.140134 -13.905443,3.235231 -4.610924,-0.717251 -9.03602,-2.855335 -12.588748,-6.219047 -1.278486,-1.210466 -2.410901,-2.548945 -3.380588,-3.98355 0,0 0,-3e-6 0,-3e-6 -4.574507,-7.009337 -5.443511,-14.218377 -4.978299,-19.064385 0.471874,-4.915391 2.162921,-7.410916 3.639486,-7.483503 1.626649,-0.07997 3.142177,2.278932 4.955856,6.185716 1.743394,3.755388 3.769717,9.013795 6.936575,12.710253 1e-6,0 1e-6,2e-6 1e-6,2e-6 0.595233,0.723943 1.238834,1.420023 1.917059,2.068778 1.878415,1.796793 3.942982,3.162957 6.068782,3.899678 3.045054,0.999167 5.476635,1.377659 7.75735,1.213737 1.108516,-0.169065 1.889579,0.02036 2.50563,-0.06822 0.754429,0.300758 1.755079,-0.590088 2.621319,-0.820105 z" /><g
         aria-label="Club"
         id="text4318"
         style="font-size:3.96875px;-inkscape-font-specification:sans-serif;fill:#ffffff;stroke-width:0.654"
         transform="translate(15.065656,-44.63898)"><path
           d="m 49.94493,119.87894 c -0.232162,-0.33729 -0.443685,-0.65281 -0.629916,-0.93343 -0.18374,-0.27421 -0.409016,-0.64995 -0.661882,-1.12316 -0.21329,-0.40261 -0.42516,-0.85103 -0.63111,-1.34483 -0.206659,-0.48577 -0.400214,-1.03553 -0.573547,-1.64722 -0.326275,-1.15143 -0.506219,-2.23079 -0.561564,-3.21113 -0.05077,-0.97488 0.03568,-1.84068 0.238674,-2.58487 0.19892,-0.72977 0.518922,-1.31314 0.943821,-1.75068 0.428866,-0.4387 0.961827,-0.68928 1.592328,-0.76548 0.598228,-0.0723 1.15385,0.0393 1.669144,0.32102 0.516046,0.2821 0.978893,0.71547 1.400078,1.29241 0.409294,0.56035 0.767914,1.23843 1.096508,2.03614 0.330759,0.80632 0.611438,1.68754 0.873631,2.66573 0.191317,0.71377 0.355104,1.42338 0.497467,2.13924 0.146304,0.73162 0.267657,1.52125 0.404614,2.43847 l -1.041273,0.45414 c -0.01879,-0.0434 -0.03749,-0.0868 -0.05608,-0.13024 -2.7e-5,-0.84523 -0.04325,-1.63858 -0.143825,-2.40384 -0.100394,-0.76414 -0.262923,-1.55719 -0.486683,-2.39639 -0.183528,-0.68831 -0.388905,-1.30007 -0.631069,-1.84361 -0.237213,-0.53694 -0.517697,-1.00891 -0.849309,-1.41807 -0.32264,-0.39725 -0.68812,-0.69541 -1.101647,-0.89047 -0.409198,-0.18903 -0.855849,-0.24957 -1.340968,-0.17296 -0.507767,0.0802 -0.922541,0.29146 -1.239039,0.64199 -0.315261,0.35734 -0.545501,0.79232 -0.684227,1.30419 -0.144235,0.53425 -0.203516,1.1444 -0.168515,1.82383 0.03983,0.68577 0.159122,1.39671 0.362047,2.12348 0.27916,0.9998 0.653129,1.90566 1.106228,2.7055 0.453064,0.79978 0.98628,1.49817 1.584579,2.08485 0.01979,0.0457 0.03967,0.0914 0.05965,0.13696 -0.342705,0.14948 -0.685411,0.29895 -1.028116,0.44843 z"
           id="path4473"
           inkscape:original-d="m 53.818493,117.48745 q -0.106583,0.0465 -0.193787,0.0872 -0.08527,0.0407 -0.224792,0.0853 -0.11821,0.0368 -0.257736,0.062 -0.137589,0.0271 -0.304245,0.0271 -0.313935,0 -0.571671,-0.0872 -0.255798,-0.0891 -0.445709,-0.27712 -0.186035,-0.18409 -0.29068,-0.46702 -0.104645,-0.28487 -0.104645,-0.66082 0,-0.35656 0.100769,-0.63755 0.100769,-0.28099 0.29068,-0.47478 0.184097,-0.18797 0.443771,-0.2868 0.261612,-0.0988 0.579422,-0.0988 0.232544,0 0.46315,0.0562 0.232544,0.0562 0.515473,0.19766 v 0.4554 h -0.02907 q -0.238358,-0.1996 -0.472839,-0.29068 -0.234482,-0.0911 -0.501908,-0.0911 -0.218979,0 -0.395325,0.0717 -0.174407,0.0698 -0.311996,0.21898 -0.133713,0.14534 -0.20929,0.3682 -0.07364,0.22091 -0.07364,0.51159 0,0.30425 0.08139,0.52323 0.08333,0.21898 0.213165,0.35657 0.135651,0.1434 0.315872,0.21316 0.18216,0.0678 0.383698,0.0678 0.277115,0 0.519348,-0.095 0.242233,-0.095 0.453461,-0.28487 h 0.02713 z" /><path
           d="m 51.858664,124.62324 c -0.378862,-0.60569 -0.736489,-1.22009 -1.073913,-1.84213 l 6.600227,-3.59799 c 0.262322,0.47752 0.540602,0.94332 0.835875,1.39631 z"
           id="path4475"
           inkscape:original-d="m 54.700222,117.69674 h -0.364319 v -3.01532 h 0.364319 z" /><path
           d="m 63.301556,134.45741 c -0.695865,-0.28565 -1.375272,-0.60441 -2.036428,-0.95395 l 0.282749,-0.53149 c -0.764934,-0.13005 -1.478116,-0.33711 -2.125943,-0.60464 -0.647717,-0.26752 -1.31243,-0.65874 -1.966183,-1.17889 -1.095386,-0.87153 -1.758741,-1.7676 -2.035984,-2.55749 -0.276276,-0.79613 -0.119785,-1.41378 0.386103,-1.85828 l 2.657622,-2.33514 c 0.384425,0.43668 0.787575,0.85698 1.207654,1.25856 l -2.143039,2.24507 c -0.191078,0.20017 -0.334025,0.39147 -0.427757,0.57632 -0.09135,0.18218 -0.114341,0.39122 -0.06432,0.62673 0.05329,0.24292 0.182068,0.49868 0.389372,0.7615 0.205433,0.26064 0.557029,0.59761 1.057474,0.97556 0.447069,0.33764 0.984291,0.64102 1.603761,0.89069 0.625946,0.25381 1.238084,0.42456 1.8237,0.51867 l 1.90168,-3.57463 c 0.504763,0.2698 1.021127,0.51393 1.547296,0.73004 -0.68592,1.67046 -1.37184,3.34091 -2.057759,5.01137 z"
           id="path4477"
           inkscape:original-d="m 57.215572,117.69674 h -0.364318 v -0.2403 q -0.184098,0.14534 -0.352692,0.22286 -0.168595,0.0775 -0.37207,0.0775 -0.341065,0 -0.530976,-0.20735 -0.189911,-0.20929 -0.189911,-0.61236 v -1.40496 h 0.364319 v 1.23249 q 0,0.16471 0.0155,0.28292 0.0155,0.11628 0.06589,0.1996 0.05232,0.0853 0.13565,0.12403 0.08333,0.0388 0.242233,0.0388 0.141465,0 0.308121,-0.0736 0.168595,-0.0736 0.313935,-0.18798 v -1.61618 h 0.364318 z" /><path
           d="m 78.319881,132.04963 c 0.182128,0.41564 0.214742,0.84928 0.06414,1.29987 -0.143375,0.44742 -0.431307,0.88185 -0.873476,1.2804 -0.4697,0.41725 -1.041868,0.77236 -1.703,1.04372 -0.66155,0.26812 -1.421731,0.45398 -2.259714,0.53106 -0.778516,0.0716 -1.465262,0.0524 -2.039967,-0.0265 -0.576854,-0.0759 -1.136579,-0.20174 -1.673972,-0.37373 -0.05504,0.0804 -0.110591,0.16048 -0.166651,0.2404 -0.705914,-0.0671 -1.405374,-0.16936 -2.094664,-0.30483 l 1.39605,-7.46509 c 0.500723,0.0852 1.004061,0.15042 1.505484,0.19333 l -0.236687,2.71204 c 0.517678,-0.16874 1.041469,-0.31587 1.584344,-0.45104 0.545521,-0.13913 1.128431,-0.2321 1.78469,-0.30958 1.163311,-0.13735 2.080348,-0.13638 2.897835,0.1031 0.823265,0.23752 1.455223,0.70452 1.815577,1.52688 5e-6,1e-5 10e-6,2e-5 1.5e-5,2e-5 z m -1.93715,0.71624 c -0.174931,-0.62175 -0.529318,-1.03085 -1.014519,-1.25722 -0.490346,-0.23154 -1.164853,-0.2619 -2.085743,-0.17698 -0.514843,0.0475 -1.031801,0.12859 -1.571746,0.24457 -0.540346,0.1127 -1.049888,0.23417 -1.540637,0.3756 l -0.272445,3.12177 c 0.60356,0.17097 1.138081,0.27254 1.583234,0.3223 0.45324,0.0499 0.972363,0.0626 1.547315,0.0237 1.231695,-0.0834 2.175,-0.42771 2.769656,-0.89599 0.610003,-0.47977 0.776105,-1.07808 0.584899,-1.75768 z"
           id="path4479"
           inkscape:original-d="m 59.837505,116.59797 q 0,0.2713 -0.07751,0.48834 -0.07558,0.21704 -0.205414,0.36432 -0.137589,0.15309 -0.302307,0.23061 -0.164719,0.0756 -0.362381,0.0756 -0.184098,0 -0.321686,-0.0446 -0.137589,-0.0426 -0.271301,-0.11627 l -0.02326,0.10077 h -0.341064 v -3.01532 h 0.364319 v 1.07745 q 0.153091,-0.12596 0.325561,-0.20541 0.17247,-0.0814 0.387573,-0.0814 0.383698,0 0.604615,0.29455 0.222854,0.29456 0.222854,0.83135 z m -0.375946,0.01 q 0,-0.38757 -0.127899,-0.58718 -0.127899,-0.20153 -0.412765,-0.20153 -0.158905,0 -0.321686,0.0698 -0.162781,0.0678 -0.302307,0.17635 v 1.24023 q 0.155029,0.0698 0.265487,0.0969 0.112397,0.0271 0.253861,0.0271 0.302307,0 0.472839,-0.19766 0.17247,-0.1996 0.17247,-0.62399 z" /></g></g><g
       id="g6032"
       inkscape:path-effect="#path-effect6034"
       class="UnoptimicedTransforms"><ellipse
         style="fill:#ff2a2a;fill-opacity:0.4;stroke:none;stroke-width:0.367881;stroke-dasharray:none;stroke-opacity:1"
         id="path4497-99"
         cx="102.53741"
         cy="110.85077"
         rx="7.9332762"
         ry="2.9536958"
         d="m 114.62126,99.347122 c 0.59233,0.603195 -0.83341,2.789878 -3.05081,6.607938 -2.25549,3.88367 -4.90863,8.86529 -6.10738,14.62425 -0.23193,1.11422 -0.40378,2.23012 -0.51254,3.35086 0,0 0,0 0,0 -0.51671,5.33621 0.25425,9.72979 1.36414,13.14125 1.0533,3.23751 2.1114,5.10004 1.6045,5.57908 -0.43406,0.41021 -2.63556,-0.42406 -4.9993,-3.84639 -2.38982,-3.4601 -4.282722,-8.89312 -3.783389,-15.37363 10e-7,0 0,0 0,0 0.104948,-1.36578 0.302806,-2.72255 0.588793,-4.0622 1.484726,-6.9549 5.111416,-12.45512 8.504166,-15.96639 3.36169,-3.479132 5.90382,-4.551724 6.39182,-4.054768 z" /><g
         aria-label="Munich"
         id="text4322"
         style="font-size:3.96875px;-inkscape-font-specification:sans-serif;fill:#ffffff;stroke-width:0.654"
         transform="translate(33.490003,-29.853419)"><path
           d="m 70.374812,161.3684 c 0.07367,0.3641 0.155206,0.72599 0.244698,1.08516 l -2.417378,0.6093 c 0.758446,0.68881 1.540714,1.31497 2.338196,1.87189 0.0764,0.21305 0.155831,0.4248 0.23831,0.63511 -0.235601,0.93832 -0.410498,1.91243 -0.514312,2.91978 l 2.186978,-1.144 c 0.156707,0.30067 0.320803,0.59687 0.492373,0.88818 l -2.465782,1.45359 c -0.287178,-0.48674 -0.55612,-0.9834 -0.807092,-1.4887 0.107773,-0.97873 0.280714,-1.92654 0.50961,-2.84109 -0.762867,-0.51729 -1.512855,-1.09567 -2.242912,-1.72982 -0.152019,-0.55468 -0.286199,-1.11449 -0.402824,-1.67806 z"
           id="path4482"
           inkscape:original-d="m 65.156044,142.09518 h -0.383698 v -2.48628 l -0.802276,1.69176 h -0.228668 l -0.796463,-1.69176 v 2.48628 h -0.358506 v -2.88548 h 0.523224 l 0.769333,1.60649 0.744141,-1.60649 h 0.532913 z" /><path
           d="m 69.913912,153.99149 c -0.02443,0.35252 -0.0424,0.70606 -0.05383,1.06019 l -0.241095,-0.009 c 0.08543,0.36475 0.155583,0.70944 0.208826,1.03832 0.05325,0.32894 0.08616,0.68903 0.102864,1.08477 0.02803,0.66416 0.003,1.17948 -0.09958,1.56511 -0.103244,0.38321 -0.282713,0.59551 -0.552046,0.62782 l -1.404911,0.16852 c -0.04587,-0.38095 -0.084,-0.76286 -0.114468,-1.14529 l 1.237764,-0.0986 c 0.110257,-0.009 0.20378,-0.0319 0.280495,-0.0689 0.07547,-0.0369 0.13718,-0.10739 0.185932,-0.21092 0.04983,-0.10751 0.0824,-0.24377 0.09908,-0.40937 0.01684,-0.16667 0.01744,-0.40332 0.0076,-0.7172 -0.0087,-0.27874 -0.03876,-0.58084 -0.08787,-0.91006 -0.04909,-0.33299 -0.105944,-0.64409 -0.172817,-0.93511 l -1.621598,-0.0575 c 0.01416,-0.38171 0.0357,-0.76266 0.06454,-1.14241 0.72036,0.0531 1.44072,0.10615 2.16108,0.15922 z"
           id="path4484"
           inkscape:original-d="m 67.696587,142.09518 h -0.364319 v -0.24029 q -0.184098,0.14534 -0.352692,0.22285 -0.168594,0.0775 -0.37207,0.0775 -0.341065,0 -0.530976,-0.20735 -0.18991,-0.20929 -0.18991,-0.61237 v -1.40495 h 0.364318 v 1.23248 q 0,0.16472 0.0155,0.28293 0.0155,0.11627 0.06589,0.1996 0.05232,0.0853 0.13565,0.12402 0.08333,0.0388 0.242234,0.0388 0.141464,0 0.30812,-0.0736 0.168595,-0.0736 0.313935,-0.18797 v -1.61618 h 0.364319 z" /><path
           d="m 71.341004,146.81947 c -0.110071,0.33536 -0.214565,0.67224 -0.313306,1.01055 l -1.173724,-0.34217 c -0.09474,-0.0276 -0.188219,-0.0366 -0.280534,-0.0266 -0.09353,0.01 -0.176855,0.0533 -0.249571,0.13118 -0.07864,0.0802 -0.155538,0.20692 -0.228761,0.38003 -0.07432,0.17242 -0.149348,0.40405 -0.220512,0.69272 -0.07315,0.29674 -0.121946,0.61403 -0.144522,0.94975 -0.02258,0.33574 -0.0237,0.66053 -0.0043,0.973 l 1.579249,0.29068 c -0.06305,0.34622 -0.119837,0.69366 -0.170173,1.04225 l -2.131518,-0.31396 c 0.05566,-0.37405 0.117903,-0.74661 0.186564,-1.11761 l 0.234799,0.0432 c -0.02846,-0.36172 -0.02824,-0.73313 0.0013,-1.11211 0.02949,-0.37898 0.09349,-0.76219 0.192214,-1.14676 0.180198,-0.70197 0.407659,-1.21605 0.651719,-1.53484 0.24551,-0.32068 0.496673,-0.43465 0.745893,-0.35308 0.441728,0.14458 0.883457,0.28916 1.325186,0.43374 z"
           id="path4486"
           inkscape:original-d="m 70.223564,142.09518 h -0.364319 v -1.23248 q 0,-0.14921 -0.01744,-0.27905 -0.01744,-0.13178 -0.06395,-0.20542 -0.04845,-0.0814 -0.139526,-0.12014 -0.09108,-0.0407 -0.23642,-0.0407 -0.149216,0 -0.311997,0.0736 -0.16278,0.0736 -0.311996,0.18797 v 1.61618 h -0.364319 v -2.16459 h 0.364319 v 0.24029 q 0.170532,-0.14146 0.352692,-0.22091 0.182159,-0.0795 0.374008,-0.0795 0.350754,0 0.534851,0.21123 0.184097,0.21123 0.184097,0.60849 z" /><path
           d="m 70.169592,142.84278 c -0.170108,0.39355 -0.333576,0.78982 -0.490154,1.18869 l -0.349533,-0.13768 c 0.158012,-0.40297 0.322947,-0.80325 0.494553,-1.20075 z m 2.280812,1.06368 c -0.141318,0.32583 -0.277572,0.65339 -0.408587,0.98261 l -2.000765,-0.79262 c 0.13832,-0.34998 0.282024,-0.69797 0.430935,-1.04388 z"
           id="path4488"
           inkscape:original-d="m 71.316521,139.56821 h -0.410828 v -0.37789 h 0.410828 z m -0.02325,2.52697 h -0.364319 v -2.16459 h 0.364319 z" /><path
           d="m 75.609915,137.83262 c -0.15066,0.33403 -0.297693,0.64698 -0.443066,0.93999 -0.14332,0.28981 -0.307684,0.5894 -0.492606,0.90133 -0.235538,0.39732 -0.463699,0.7531 -0.689169,1.06875 -0.226596,0.31495 -0.442068,0.57342 -0.651339,0.77549 -0.210895,0.2053 -0.412657,0.34635 -0.608361,0.42166 -0.195497,0.0752 -0.378416,0.0729 -0.548831,-0.01 -0.316258,-0.15389 -0.441136,-0.54105 -0.346369,-1.16648 0.09623,-0.6266 0.386101,-1.38547 0.89076,-2.24242 0.196268,-0.33328 0.408081,-0.64816 0.634108,-0.9438 0.228035,-0.29889 0.449654,-0.56359 0.661857,-0.79407 l 0.339746,0.22384 c -0.01095,0.0166 -0.02189,0.0333 -0.03282,0.0499 -0.260619,0.23851 -0.508606,0.50184 -0.742418,0.78938 -0.23173,0.28414 -0.435954,0.57705 -0.612278,0.87697 -0.324075,0.55124 -0.507815,1.02976 -0.560564,1.42038 -0.05215,0.38774 0.04579,0.64244 0.283276,0.76674 0.231369,0.1211 0.489567,0.0582 0.778373,-0.17948 0.290586,-0.24256 0.586923,-0.63475 0.907894,-1.17809 0.111468,-0.1887 0.218082,-0.38484 0.320228,-0.58879 0.10221,-0.20408 0.18898,-0.39053 0.259823,-0.56072 0.06169,-0.14844 0.117983,-0.2891 0.168719,-0.42244 0.04979,-0.13436 0.0879,-0.24061 0.114453,-0.32123 0.01068,-0.0162 0.02136,-0.0324 0.03206,-0.0486 0.112175,0.0739 0.22435,0.1478 0.336524,0.2217 z"
           id="path4490"
           inkscape:original-d="m 73.61483,141.95953 q -0.182159,0.0872 -0.346878,0.13565 -0.162781,0.0485 -0.346878,0.0485 -0.234482,0 -0.430206,-0.0678 -0.195725,-0.0698 -0.335251,-0.20929 -0.141464,-0.13953 -0.218979,-0.3527 -0.07752,-0.21316 -0.07752,-0.49803 0,-0.53097 0.29068,-0.83328 0.292618,-0.30231 0.771271,-0.30231 0.186035,0 0.364319,0.0523 0.180221,0.0523 0.329437,0.12789 v 0.40502 h -0.01938 q -0.166656,-0.12984 -0.34494,-0.1996 -0.176346,-0.0698 -0.34494,-0.0698 -0.310059,0 -0.49028,0.20928 -0.178284,0.20736 -0.178284,0.61043 0,0.39145 0.174408,0.60268 0.176346,0.20929 0.494156,0.20929 0.110458,0 0.224792,-0.0291 0.114335,-0.0291 0.205414,-0.0756 0.07945,-0.0407 0.149216,-0.0853 0.06976,-0.0465 0.110458,-0.0794 h 0.01938 z" /><path
           d="m 79.870847,132.54436 c -0.241321,0.27035 -0.479783,0.54337 -0.715213,0.81897 l -0.942544,-0.8063 c -0.07607,-0.0651 -0.158779,-0.1124 -0.24829,-0.14174 -0.09049,-0.0302 -0.185648,-0.0248 -0.285338,0.0164 -0.106162,0.0409 -0.23004,0.12507 -0.370397,0.2531 -0.141171,0.12702 -0.307865,0.30745 -0.49655,0.54123 -0.193895,0.24024 -0.375153,0.50883 -0.542037,0.80498 -0.166889,0.29616 -0.310919,0.59092 -0.432323,0.88318 l 1.305851,0.9697 c -0.215885,0.29033 -0.428219,0.58303 -0.636826,0.87803 l -2.477872,-1.74846 c 0.222252,-0.31571 0.448431,-0.62866 0.678362,-0.93875 l 0.881529,0.65461 c 0.134306,-0.34022 0.29693,-0.67703 0.487742,-1.0089 0.190788,-0.3319 0.413061,-0.65348 0.66618,-0.9629 0.462234,-0.56505 0.882639,-0.94198 1.239455,-1.13512 0.358277,-0.19394 0.637214,-0.19756 0.835345,-0.0203 z"
           id="path4492"
           inkscape:original-d="m 75.891823,142.09518 h -0.364319 v -1.23248 q 0,-0.14921 -0.01744,-0.27905 -0.01744,-0.13178 -0.06395,-0.20542 -0.04845,-0.0814 -0.139527,-0.12014 -0.09108,-0.0407 -0.236419,-0.0407 -0.149216,0 -0.311997,0.0736 -0.162781,0.0736 -0.311996,0.18797 v 1.61618 h -0.364319 v -3.01532 h 0.364319 v 1.09102 q 0.170532,-0.14146 0.352691,-0.22091 0.18216,-0.0795 0.374008,-0.0795 0.350754,0 0.534852,0.21123 0.184097,0.21123 0.184097,0.60849 z" /></g></g><g
       id="g5866"
       inkscape:path-effect="#path-effect5868"
       class="UnoptimicedTransforms"><ellipse
         style="fill:#ff2a2a;fill-opacity:0.4;stroke:none;stroke-width:0.402017;stroke-dasharray:none;stroke-opacity:1"
         id="path4497-9"
         cx="77.772781"
         cy="87.941994"
         rx="9.461503"
         ry="2.9575648"
         d="m 86.609001,125.95401 c -0.786196,-0.009 -1.419848,-1.41877 -2.283399,-3.87076 -0.785598,-2.23066 -1.947141,-5.98042 -4.090179,-8.6233 -1.5191,-1.87667 -3.793428,-3.54107 -5.956965,-3.55507 -0.541077,-0.0815 -1.100777,-0.0826 -1.67699,-0.0164 -2.210138,0.25384 -4.698045,1.51647 -6.974163,2.88536 0,0 -1e-6,0 -1e-6,0 -3.831669,2.45247 -7.138669,5.96384 -9.326916,8.12005 -2.337291,2.30308 -3.832819,3.5248 -4.611353,3.10366 -0.705524,-0.38164 -0.710765,-2.40749 0.606134,-5.71165 1.306088,-3.27703 3.958244,-7.82685 8.661723,-11.76432 0,0 2e-6,-1e-5 2e-6,-1e-5 2.720708,-2.36703 6.399166,-4.3161 10.731549,-4.79411 1.110384,-0.12251 2.250738,-0.14623 3.411605,-0.058 5.418094,0.74598 9.363763,4.11831 11.366347,7.93078 2.45753,4.81953 2.53484,9.38815 2.151151,12.11555 -0.400856,2.84942 -1.259582,4.24717 -2.008545,4.23815 z" /><g
         aria-label="Student"
         id="text4395"
         style="font-size:3.96875px;-inkscape-font-specification:sans-serif;fill:#ffffff;stroke-width:0.654"
         transform="translate(55.426734,-8.7657314)"><path
           d="m 3.8545617,122.81499 c 0.1157145,0.10702 0.1769375,0.26971 0.1869645,0.48719 0.01256,0.21474 -0.032015,0.45851 -0.1311279,0.73312 -0.1095446,0.30027 -0.2667623,0.62171 -0.470022,0.96848 -0.2011446,0.34434 -0.4731883,0.73181 -0.8141615,1.17288 -0.366587,0.47421 -0.7067737,0.89026 -1.0331109,1.25167 -0.3231521,0.35725 -0.66875211,0.71302 -1.03791573,1.06939 l -0.56213401,-0.37857 c 0.01494024,-0.0222 0.02989689,-0.0444 0.04487001,-0.0666 0.38406031,-0.26244 0.77335501,-0.59442 1.17589533,-0.99467 0.4022733,-0.39999 0.7522263,-0.78994 1.0511287,-1.17595 0.4234234,-0.54682 0.7137652,-0.99718 0.8648692,-1.37216 0.1529467,-0.37645 0.1563489,-0.63213 -0.00146,-0.76915 -0.1354158,-0.11758 -0.2967083,-0.13411 -0.4839308,-0.0464 -0.1841232,0.0845 -0.418793,0.2581 -0.697504,0.52374 -0.2117283,0.20104 -0.4328481,0.42826 -0.6617103,0.68218 -0.143009,0.15841 -0.58234126,0.64301 -0.72535032,0.80142 -0.52247714,0.57304 -0.95372497,0.96553 -1.32123367,1.17185 -0.36447081,0.20078 -0.66909671,0.22272 -0.91554981,0.0564 -0.2811747,-0.18977 -0.3397289,-0.60882 -0.1490629,-1.25633 0.1885571,-0.64645 0.5822997,-1.37689 1.1943577,-2.1577 0.3958083,-0.50494 0.79144049,-0.94354 1.17998085,-1.3164 0.38838745,-0.37272 0.75385715,-0.6834 1.08993135,-0.93407 l 0.4706837,0.42723 c -0.018901,0.0208 -0.037779,0.0416 -0.056634,0.0624 -0.3251299,0.16494 -0.7071672,0.43147 -1.13508372,0.80433 -0.4271263,0.36899 -0.82352606,0.78603 -1.18514742,1.24791 -0.39608778,0.50591 -0.65760677,0.95893 -0.79041616,1.34388 -0.1308002,0.38276 -0.1143099,0.62925 0.039594,0.73858 0.13809095,0.0981 0.30155447,0.097 0.49064052,-5.2e-4 0.19012304,-0.0981 0.44316493,-0.32369 0.7706982,-0.67401 0.29370602,-0.3178 0.43485873,-0.47483 0.72856475,-0.79263 0.31511783,-0.33998 0.59389083,-0.62046 0.82827613,-0.84133 0.4775029,-0.44627 0.893286,-0.73173 1.2298004,-0.86504 0.3379188,-0.13387 0.6128674,-0.0975 0.8252935,0.0989 3.4e-6,0 6.8e-6,0 1.02e-5,0 z"
           id="path4420"
           inkscape:original-d="m 17.089048,97.113838 q 0,0.168595 -0.07945,0.333313 -0.07751,0.164719 -0.218979,0.279053 -0.155029,0.124023 -0.362381,0.193787 -0.205414,0.06976 -0.496094,0.06976 -0.311996,0 -0.561981,-0.05814 -0.248047,-0.05814 -0.505783,-0.17247 V 97.27855 h 0.02713 q 0.218979,0.182159 0.505783,0.28099 0.286804,0.09883 0.538727,0.09883 0.356567,0 0.55423,-0.133713 0.1996,-0.133713 0.1996,-0.356568 0,-0.191848 -0.09496,-0.282928 -0.09302,-0.09108 -0.284867,-0.141464 -0.14534,-0.03876 -0.315872,-0.06395 -0.168594,-0.02519 -0.358505,-0.06395 -0.383698,-0.08139 -0.569733,-0.277115 -0.184097,-0.197663 -0.184097,-0.513535 0,-0.362381 0.306183,-0.592987 0.306182,-0.232544 0.777084,-0.232544 0.304245,0 0.558105,0.05814 0.253861,0.05814 0.449585,0.143402 v 0.453461 h -0.02713 q -0.164718,-0.139526 -0.434082,-0.230606 -0.267425,-0.09302 -0.548416,-0.09302 -0.308121,0 -0.496094,0.127899 -0.186035,0.1279 -0.186035,0.329438 0,0.180221 0.09302,0.282928 0.09302,0.102707 0.327499,0.156967 0.124024,0.02713 0.352692,0.06589 0.228668,0.03876 0.387573,0.07945 0.321686,0.08527 0.484467,0.257737 0.16278,0.17247 0.16278,0.482528 z" /><path
           d="m 8.2250746,120.27883 c -0.1360553,0.13969 -0.2872549,0.28802 -0.4537208,0.44676 -0.1637991,0.15655 -0.3118628,0.2929 -0.4471617,0.40965 -0.4718765,0.40719 -0.8716586,0.66791 -1.2251571,0.77316 -0.3512305,0.10457 -0.656421,0.0318 -0.9133982,-0.23085 l -1.1270276,-1.15169 c -0.179491,0.17556 -0.3570763,0.35297 -0.5327892,0.53215 l -0.306274,-0.30004 c 0.1778323,-0.18127 0.3575816,-0.36078 0.5392812,-0.53845 l -0.6090495,-0.62238 c 0.2756149,-0.26938 0.555702,-0.53484 0.8403687,-0.79611 l 0.588528,0.64174 c 0.5729753,-0.52573 1.1646116,-1.03329 1.7758545,-1.52051 l 0.2669795,0.33635 c -0.6032597,0.48021 -1.1873289,0.98095 -1.7531534,1.50004 l 0.9332113,1.01759 c 0.1075122,0.11723 0.1975671,0.20414 0.2697149,0.26058 0.070988,0.0552 0.1657723,0.0811 0.2841304,0.0788 0.1092623,-0.001 0.2275701,-0.0362 0.3556548,-0.10379 0.1303002,-0.0718 0.3034378,-0.20268 0.5265285,-0.39175 0.1296232,-0.10987 0.2581344,-0.23226 0.3864081,-0.36739 0.1280833,-0.13755 0.2174367,-0.23469 0.2720531,-0.2992 0.014511,-0.0115 0.029032,-0.023 0.043566,-0.0345 0.09515,0.11995 0.1903014,0.2399 0.2854529,0.35985 z"
           id="path4422"
           inkscape:original-d="m 18.800184,97.918053 q -0.102707,0.02713 -0.224792,0.04457 -0.120148,0.01744 -0.215103,0.01744 -0.331376,0 -0.503846,-0.178283 -0.17247,-0.178284 -0.17247,-0.571671 v -1.151092 h -0.246109 v -0.306183 h 0.246109 V 95.15078 h 0.364319 v 0.622055 h 0.751892 v 0.306183 h -0.751892 v 0.986374 q 0,0.170532 0.0078,0.267425 0.0078,0.09496 0.05426,0.178284 0.04263,0.07751 0.116272,0.114334 0.07558,0.03488 0.228668,0.03488 0.08914,0 0.186035,-0.02519 0.09689,-0.02713 0.139527,-0.04457 h 0.01938 z" /><path
           d="m 13.5744,117.14515 c -0.305197,0.12228 -0.608856,0.2547 -0.910503,0.39618 l -0.142352,-0.30884 c -0.254192,0.2705 -0.497139,0.5104 -0.739164,0.72227 -0.241493,0.2114 -0.52274,0.41034 -0.847492,0.60304 -0.545283,0.32354 -1.0075861,0.51229 -1.4173067,0.55274 -0.4075366,0.0386 -0.7254577,-0.0863 -0.9475359,-0.39314 l -1.1608051,-1.60369 c 0.3085954,-0.22743 0.6241428,-0.44884 0.9461677,-0.66314 l 0.9611826,1.4582 c 0.085599,0.12986 0.1720258,0.23315 0.2585123,0.30999 0.085547,0.0754 0.1906212,0.11947 0.3148437,0.13347 0.1283784,0.0135 0.2693244,-0.006 0.4238214,-0.0586 0.155468,-0.0526 0.359613,-0.15586 0.621493,-0.30687 0.232833,-0.13425 0.469497,-0.30549 0.717711,-0.51407 0.251129,-0.21 0.479461,-0.42119 0.686039,-0.63627 l -0.95743,-2.07719 c 0.356296,-0.16237 0.717661,-0.31437 1.083621,-0.4549 0.369732,0.94693 0.739464,1.89385 1.109197,2.84077 z"
           id="path4424"
           inkscape:original-d="m 21.034544,97.937431 h -0.364319 v -0.240295 q -0.184097,0.14534 -0.352692,0.222855 -0.168594,0.07751 -0.37207,0.07751 -0.341064,0 -0.530975,-0.207351 -0.189911,-0.20929 -0.189911,-0.612366 v -1.404953 h 0.364319 v 1.232483 q 0,0.164718 0.0155,0.282928 0.0155,0.116272 0.06589,0.1996 0.05232,0.08527 0.135651,0.124024 0.08333,0.03876 0.242233,0.03876 0.141464,0 0.308121,-0.07364 0.168594,-0.07364 0.313934,-0.187973 v -1.61618 h 0.364319 z" /><path
           d="m 19.829426,116.36898 c -0.244465,-0.0447 -0.490785,-0.0773 -0.738416,-0.0969 -0.05177,-0.006 -0.10357,-0.0122 -0.155408,-0.0176 l 0.0265,-0.31683 c -0.283899,0.0991 -0.567439,0.18112 -0.857251,0.24836 -0.289987,0.0673 -0.598776,0.11233 -0.936001,0.14194 -0.656377,0.0576 -1.189676,0.0283 -1.654232,-0.15052 -0.455054,-0.17728 -0.768013,-0.48554 -0.899152,-0.96193 -0.06803,-0.24713 -0.05546,-0.48795 0.04794,-0.72147 0.107101,-0.2342 0.28235,-0.45252 0.529502,-0.64776 0.243635,-0.19069 0.548035,-0.35361 0.910848,-0.47813 0.367064,-0.12515 0.760372,-0.20323 1.171657,-0.22916 0.372966,-0.0235 0.707308,-0.0133 0.996797,0.0227 0.289585,0.0341 0.593512,0.0964 0.906146,0.18993 l 0.109602,-1.31064 c 0.07445,0.005 0.14899,0.01 0.223614,0.0157 0.377994,0.0451 0.751213,0.10562 1.119111,0.18087 -0.267081,1.37716 -0.534163,2.75433 -0.801247,4.13149 z m -0.831549,-0.85916 0.145156,-1.73579 c -0.306376,-0.0851 -0.586856,-0.1376 -0.833297,-0.16376 -0.247013,-0.0262 -0.517755,-0.0341 -0.809282,-0.0201 -0.648805,0.0312 -1.139879,0.19654 -1.457333,0.44573 -0.318746,0.2502 -0.428871,0.56077 -0.359662,0.91629 0.06835,0.35108 0.243849,0.59236 0.511499,0.73669 0.270057,0.14399 0.648288,0.17559 1.161939,0.1416 0.273572,-0.0181 0.547729,-0.057 0.830765,-0.11567 0.282899,-0.0605 0.551878,-0.12744 0.810214,-0.20499 z"
           id="path4426"
           inkscape:original-d="m 23.507261,97.937431 h -0.364319 v -0.22673 q -0.156967,0.135651 -0.327499,0.211227 -0.170532,0.07558 -0.370132,0.07558 -0.387574,0 -0.616242,-0.298431 -0.22673,-0.298432 -0.22673,-0.827469 0,-0.275177 0.07751,-0.49028 0.07945,-0.215103 0.213166,-0.366257 0.131775,-0.147278 0.306183,-0.224792 0.176345,-0.07752 0.364318,-0.07752 0.170533,0 0.302308,0.03682 0.131774,0.03488 0.277114,0.110459 v -0.937927 h 0.364319 z m -0.364319,-0.532913 v -1.242172 q -0.147277,-0.06589 -0.263549,-0.09108 -0.116272,-0.02519 -0.253861,-0.02519 -0.306183,0 -0.476715,0.213165 -0.170532,0.213165 -0.170532,0.604614 0,0.385636 0.131775,0.587174 0.131775,0.1996 0.422455,0.1996 0.155029,0 0.313934,-0.06782 0.158905,-0.06976 0.296493,-0.178284 z" /><path
           d="m 26.347399,118.62295 c -1.044462,-1.16729 -2.299489,-2.14425 -3.68573,-2.82252 -0.08138,0.16661 -0.10043,0.3376 -0.06429,0.51157 0.03703,0.17272 0.11712,0.34205 0.2374,0.512 0.115287,0.16521 0.263645,0.32955 0.444943,0.4996 0.184451,0.1722 0.393163,0.34438 0.628971,0.52461 0.313103,0.23931 0.638181,0.46225 0.98906,0.67981 0.358257,0.22083 0.608948,0.37466 0.792092,0.452 0.01216,0.0132 0.02429,0.0265 0.03639,0.0397 l -0.413813,0.37764 c -0.270804,-0.18984 -0.549614,-0.38381 -0.824259,-0.57226 -0.278294,-0.19094 -0.553809,-0.39443 -0.840929,-0.61511 -0.734275,-0.56435 -1.27087,-1.00397 -1.636677,-1.47908 -0.35609,-0.46509 -0.495335,-0.91748 -0.322096,-1.386 0.16927,-0.45779 0.57644,-0.7399 1.267137,-0.74391 0.686534,-0.002 1.523277,0.27049 2.377801,0.88431 0.789592,0.56718 1.262152,1.17541 1.453845,1.70673 0.19577,0.53734 0.09578,0.95157 -0.232123,1.24499 -0.06924,0.062 -0.138478,0.12393 -0.207717,0.18589 z m -0.456469,-1.03441 c 0.18207,-0.19742 0.219975,-0.45275 0.08954,-0.76529 -0.125755,-0.30602 -0.436469,-0.67049 -0.945107,-1.03307 -0.512636,-0.36542 -0.991338,-0.55396 -1.391307,-0.59087 -0.397096,-0.035 -0.666315,0.0596 -0.811683,0.25162 1.116684,0.54496 2.148641,1.27448 3.058554,2.13761 z"
           id="path4428"
           inkscape:original-d="m 26.036177,96.892921 h -1.594864 q 0,0.199601 0.06007,0.348816 0.06007,0.147278 0.164718,0.242234 0.100769,0.09302 0.238358,0.139526 0.139526,0.04651 0.306183,0.04651 0.220916,0 0.443771,-0.0872 0.224793,-0.08914 0.319748,-0.174408 h 0.01938 v 0.397262 q -0.184098,0.07752 -0.375946,0.129837 -0.191849,0.05232 -0.403077,0.05232 -0.538726,0 -0.841034,-0.29068 -0.302307,-0.292618 -0.302307,-0.829407 0,-0.530975 0.288742,-0.842972 0.29068,-0.311996 0.76352,-0.311996 0.437957,0 0.674377,0.255798 0.238358,0.255799 0.238358,0.7267 z m -0.35463,-0.279052 q -0.0019,-0.286804 -0.14534,-0.443772 -0.141464,-0.156967 -0.432144,-0.156967 -0.292618,0 -0.467026,0.17247 -0.17247,0.17247 -0.195724,0.428269 z" /><path
           d="m 28.248783,125.12347 c -0.100553,-0.31805 -0.208707,-0.6323 -0.324922,-0.94232 l 1.607891,-0.60618 c 0.129801,-0.0489 0.245012,-0.11085 0.345339,-0.18663 0.101989,-0.0764 0.167964,-0.17123 0.197063,-0.28484 0.03431,-0.11974 0.03339,-0.2741 -0.0053,-0.46154 -0.03695,-0.18761 -0.115786,-0.42163 -0.240646,-0.69549 -0.128352,-0.28152 -0.300293,-0.55947 -0.515579,-0.82759 -0.21534,-0.26818 -0.447477,-0.50847 -0.693719,-0.71926 l -1.954911,1.14421 c -0.06797,-0.11364 -0.137472,-0.22638 -0.20855,-0.33819 -0.10007,-0.1591 -0.204133,-0.31609 -0.311987,-0.47071 l 2.5075,-1.73108 c 0.135083,0.1969 0.265097,0.3971 0.389842,0.60035 0.08224,0.13501 0.162722,0.27074 0.241462,0.40716 l -0.290657,0.17012 c 0.293688,0.24332 0.562436,0.52248 0.80277,0.83369 0.240331,0.31121 0.443851,0.65602 0.606934,1.02892 0.297752,0.68085 0.400479,1.25215 0.342043,1.67631 -0.05894,0.42779 -0.274386,0.69183 -0.625958,0.80446 0,0 -1.868595,0.59861 -1.868595,0.59861 z"
           id="path4430"
           inkscape:original-d="m 28.398436,97.937431 h -0.364319 v -1.232483 q 0,-0.149215 -0.01744,-0.279052 -0.01744,-0.131775 -0.06395,-0.205414 -0.04845,-0.08139 -0.139526,-0.120148 -0.09108,-0.04069 -0.23642,-0.04069 -0.149215,0 -0.311996,0.07364 -0.162781,0.07364 -0.311997,0.187973 v 1.61618 H 26.58847 v -2.164596 h 0.364318 v 0.240295 q 0.170533,-0.141464 0.352692,-0.220917 0.182159,-0.07945 0.374008,-0.07945 0.350754,0 0.534851,0.211227 0.184098,0.211228 0.184098,0.60849 z" /><path
           d="m 29.273019,130.13392 c -0.04583,-0.19252 -0.09038,-0.40192 -0.135291,-0.62991 -0.04442,-0.22417 -0.07999,-0.42396 -0.10568,-0.6014 -0.08958,-0.6186 -0.09347,-1.0953 0.0067,-1.44733 0.100159,-0.35203 0.324028,-0.57136 0.683312,-0.6522 l 1.576959,-0.35482 c -0.05635,-0.24764 -0.116229,-0.49443 -0.179778,-0.74023 l 0.415652,-0.10643 c 0.0649,0.2499 0.126044,0.50071 0.183586,0.75228 l 0.852194,-0.19175 c 0.08876,0.38423 0.169282,0.76978 0.242013,1.15622 l -0.861917,0.15736 c 0.144128,0.77464 0.256555,1.55462 0.34133,2.33616 l -0.430906,0.046 c -0.08328,-0.77182 -0.193484,-1.5413 -0.334669,-2.30468 l -1.366715,0.24953 c -0.157439,0.0287 -0.279763,0.0589 -0.366533,0.09 -0.08509,0.0308 -0.158149,0.0974 -0.220049,0.19894 -0.05779,0.0934 -0.09216,0.21223 -0.104084,0.35706 -0.0096,0.14881 0.0078,0.36629 0.04763,0.65793 0.02316,0.16955 0.05767,0.34524 0.103327,0.52785 0.04784,0.18379 0.08241,0.31284 0.107938,0.3945 0.002,0.0187 0.004,0.0373 0.0059,0.056 -0.153639,0.0163 -0.307278,0.0327 -0.460918,0.049 z"
           id="path4432"
           inkscape:original-d="m 30.223906,97.918053 q -0.102707,0.02713 -0.224793,0.04457 -0.120148,0.01744 -0.215103,0.01744 -0.331375,0 -0.503845,-0.178283 -0.17247,-0.178284 -0.17247,-0.571671 v -1.151092 h -0.246109 v -0.306183 h 0.246109 V 95.15078 h 0.364318 v 0.622055 h 0.751893 v 0.306183 h -0.751893 v 0.986374 q 0,0.170532 0.0078,0.267425 0.0078,0.09496 0.05426,0.178284 0.04263,0.07751 0.116272,0.114334 0.07558,0.03488 0.228668,0.03488 0.08914,0 0.186036,-0.02519 0.09689,-0.02713 0.139526,-0.04457 h 0.01938 z" /></g></g></g></svg>
